<svg width="32" height="23" viewBox="0 0 32 23" fill="none" xmlns="http://www.w3.org/2000/svg">
<path d="M2.28571 4.6H29.7143C30.976 4.6 32 3.5696 32 2.3C32 1.0304 30.976 0 29.7143 0H2.28571C1.024 0 0 1.0304 0 2.3C0 3.5696 1.024 4.6 2.28571 4.6ZM29.7143 9.2H2.28571C1.024 9.2 0 10.2304 0 11.5C0 12.7696 1.024 13.8 2.28571 13.8H29.7143C30.976 13.8 32 12.7696 32 11.5C32 10.2304 30.976 9.2 29.7143 9.2ZM29.7143 18.4H2.28571C1.024 18.4 0 19.4304 0 20.7C0 21.9696 1.024 23 2.28571 23H29.7143C30.976 23 32 21.9696 32 20.7C32 19.4304 30.976 18.4 29.7143 18.4Z" fill="#E08524"/>
</svg>
