<svg width="28" height="28" viewBox="0 0 28 28" fill="none" xmlns="http://www.w3.org/2000/svg">
<path d="M21.7791 17.75C21.7591 17.706 21.7405 17.6696 21.7231 17.6404C21.4363 17.1142 20.8881 16.4684 20.079 15.7027L20.0619 15.6851L20.0533 15.6765L20.0446 15.6677H20.036C19.6687 15.3112 19.4362 15.0714 19.3388 14.9487C19.1606 14.7149 19.1207 14.4782 19.2181 14.2384C19.2869 14.0572 19.5453 13.6746 19.9928 13.09C20.2282 12.7802 20.4146 12.5319 20.5523 12.3448C21.5452 11.0005 21.9756 10.1414 21.8436 9.76726L21.7923 9.67983C21.7578 9.6272 21.6689 9.57905 21.5256 9.53514C21.3819 9.49132 21.1984 9.48407 20.9745 9.51327L18.4954 9.53072C18.4552 9.51622 18.3979 9.51757 18.3232 9.53514C18.2485 9.5527 18.2112 9.56152 18.2112 9.56152L18.1681 9.58347L18.1338 9.60985C18.1051 9.62729 18.0736 9.65797 18.0391 9.70182C18.0048 9.74552 17.9761 9.7968 17.9532 9.85524C17.6833 10.5625 17.3764 11.22 17.032 11.8278C16.8197 12.1903 16.6247 12.5044 16.4466 12.7704C16.2687 13.0362 16.1195 13.2321 15.9991 13.3577C15.8785 13.4834 15.7696 13.5841 15.6719 13.6601C15.5743 13.7362 15.4998 13.7684 15.4482 13.7566C15.3965 13.7449 15.3478 13.7332 15.3017 13.7215C15.2214 13.6689 15.1568 13.5973 15.1081 13.5067C15.0592 13.4161 15.0263 13.3021 15.0091 13.1647C14.992 13.0273 14.9818 12.9091 14.9789 12.8097C14.9762 12.7104 14.9775 12.57 14.9833 12.3888C14.9893 12.2075 14.992 12.0849 14.992 12.0206C14.992 11.7984 14.9962 11.5573 15.0047 11.2972C15.0134 11.0372 15.0204 10.8311 15.0263 10.6793C15.0322 10.5273 15.0349 10.3665 15.0349 10.197C15.0349 10.0275 15.0248 9.89454 15.0047 9.79806C14.985 9.7017 14.9546 9.60816 14.9146 9.51748C14.8743 9.42689 14.8154 9.35682 14.7381 9.30707C14.6607 9.25738 14.5644 9.21796 14.4498 9.18866C14.1456 9.11855 13.7582 9.08063 13.2875 9.07473C12.2202 9.06306 11.5343 9.13326 11.2302 9.28524C11.1097 9.34945 11.0006 9.43718 10.9031 9.54816C10.7998 9.67679 10.7854 9.74699 10.86 9.75854C11.2044 9.81108 11.4481 9.93677 11.5916 10.1355L11.6433 10.2408C11.6836 10.3167 11.7237 10.4512 11.7639 10.6441C11.804 10.8369 11.8299 11.0503 11.8413 11.284C11.87 11.7107 11.87 12.076 11.8413 12.3799C11.8126 12.6839 11.7855 12.9206 11.7596 13.0901C11.7337 13.2596 11.695 13.3969 11.6433 13.5021C11.5916 13.6073 11.5572 13.6716 11.54 13.695C11.5228 13.7183 11.5084 13.733 11.497 13.7388C11.4224 13.7679 11.3449 13.7827 11.2646 13.7827C11.1842 13.7827 11.0866 13.7417 10.9719 13.6599C10.8572 13.578 10.7381 13.4656 10.6147 13.3223C10.4913 13.1791 10.3521 12.9789 10.1971 12.7218C10.0422 12.4646 9.88153 12.1607 9.7151 11.81L9.5774 11.5557C9.49132 11.3921 9.37373 11.1538 9.22452 10.8412C9.07521 10.5284 8.94324 10.2259 8.82852 9.93366C8.78266 9.81092 8.71377 9.71748 8.62196 9.65318L8.57887 9.6268C8.55023 9.60346 8.50425 9.57868 8.44117 9.55227C8.37801 9.52589 8.3121 9.50698 8.24318 9.49534L5.88453 9.51278C5.6435 9.51278 5.47997 9.56839 5.39386 9.67946L5.3594 9.73201C5.34218 9.76127 5.3335 9.80801 5.3335 9.87234C5.3335 9.93664 5.35071 10.0156 5.38517 10.109C5.72949 10.9332 6.10393 11.7281 6.50849 12.4938C6.91305 13.2594 7.26461 13.8762 7.56295 14.3435C7.86135 14.8112 8.16551 15.2525 8.47543 15.6674C8.78534 16.0824 8.99049 16.3484 9.09086 16.4652C9.19135 16.5823 9.27028 16.6698 9.32766 16.7282L9.54291 16.9386C9.68063 17.0789 9.88288 17.2469 10.1497 17.4427C10.4167 17.6386 10.7122 17.8314 11.0364 18.0215C11.3607 18.2113 11.738 18.3662 12.1684 18.486C12.5988 18.6059 13.0178 18.6541 13.4252 18.6308H14.4152C14.616 18.6132 14.7681 18.5489 14.8715 18.4379L14.9057 18.394C14.9288 18.3591 14.9503 18.3049 14.9702 18.2319C14.9904 18.1589 15.0004 18.0784 15.0004 17.9909C14.9945 17.7396 15.0133 17.5131 15.0562 17.3115C15.0991 17.1099 15.148 16.9579 15.2027 16.8556C15.2574 16.7533 15.3191 16.667 15.3877 16.5971C15.4565 16.527 15.5055 16.4845 15.5343 16.4699C15.5629 16.4552 15.5857 16.4452 15.6029 16.4392C15.7407 16.3925 15.9027 16.4377 16.0894 16.5752C16.276 16.7126 16.4509 16.8822 16.6146 17.0837C16.7782 17.2855 16.9747 17.5118 17.2042 17.7631C17.4338 18.0145 17.6347 18.2014 17.8068 18.3243L17.9788 18.4295C18.0938 18.4997 18.243 18.564 18.4267 18.6224C18.61 18.6808 18.7707 18.6955 18.9086 18.6663L21.1122 18.6312C21.3302 18.6312 21.4998 18.5945 21.6201 18.5216C21.7406 18.4485 21.8122 18.368 21.8353 18.2805C21.8584 18.1928 21.8596 18.0934 21.8397 17.9822C21.8193 17.8713 21.7992 17.7938 21.7791 17.75Z" fill="white"/>
<path d="M27.2333 13.8773C27.2333 21.2657 21.2485 27.2546 13.8667 27.2546C6.48482 27.2546 0.5 21.2657 0.5 13.8773C0.5 6.48886 6.48482 0.5 13.8667 0.5C21.2485 0.5 27.2333 6.48886 27.2333 13.8773Z" stroke="#E08524"/>
</svg>
