<svg class="faq-ico" version="1.1" xmlns="http://www.w3.org/2000/svg" xmlns:xlink="http://www.w3.org/1999/xlink" x="0px" y="0px" viewBox="0 0 73 108.5" enable-background="new 0 0 73 108.5" xml:space="preserve">
<g>
<path fill="none" stroke="#E08524" stroke-width="5" stroke-linejoin="round" stroke-miterlimit="10" d="M42.125,53.719
                                                                                c5.838-6.482,15.052-11.289,15.052-20.48c0-12.298-9.177-22.267-20.497-22.267s-20.497,9.969-20.497,22.267
                                                                                c0,9.191,8.424,13.448,15.052,20.48c-7.595,7.282-15.052,11.066-15.052,20.075c0,12.055,9.177,21.827,20.497,21.827
                                                                                s20.497-9.772,20.497-21.827C57.177,64.784,46.916,58.379,42.125,53.719z"></path>
<path fill="none" stroke="#E08524" stroke-width="4" stroke-miterlimit="10" d="M18.654,39.511
                                                                                c7.342-4.39,9.384-3.025,18.824,1.349s18.824-4.636,18.824-4.636"></path>
<path fill="#FFFFFF" stroke="#E08524" stroke-width="5" stroke-miterlimit="10" d="M65,13.5c0,3.314-2.686,6-6,6H14
                                                                                c-3.314,0-6-2.686-6-6l0,0c0-3.314,2.686-7,6-7h45C62.314,6.5,65,10.186,65,13.5L65,13.5z"></path>
<path fill="#FFFFFF" stroke="#E08524" stroke-width="5" stroke-miterlimit="10" d="M65,95.5c0,3.314-2.686,7-6,7H14
                                                                                c-3.314,0-6-3.686-6-7l0,0c0-3.314,2.686-6,6-6h45C62.314,89.5,65,92.186,65,95.5L65,95.5z"></path>
</g>
</svg>