<svg width="24" height="28" viewBox="0 0 24 28" fill="none" xmlns="http://www.w3.org/2000/svg">
<path d="M10.6465 19.6465C10.451 19.842 10.451 20.158 10.6465 20.3535C10.744 20.451 10.872 20.5 11 20.5C11.128 20.5 11.256 20.451 11.3535 20.3535L17.353 14.354C17.3995 14.308 17.436 14.2525 17.4615 14.191C17.512 14.069 17.512 13.9315 17.4615 13.809C17.436 13.7475 17.399 13.692 17.353 13.6455L11.3535 7.6465C11.158 7.451 10.842 7.451 10.6465 7.6465C10.451 7.842 10.451 8.158 10.6465 8.3535L15.793 13.5H0.5C0.2235 13.5 0 13.7235 0 14C0 14.2765 0.2235 14.5 0.5 14.5H15.793L10.6465 19.6465Z" fill="#E08524"/>
<path d="M23.5 0H5C4.7235 0 4.5 0.2235 4.5 0.5V11C4.5 11.2765 4.7235 11.5 5 11.5C5.2765 11.5 5.5 11.2765 5.5 11V1H23V27H5.5V17C5.5 16.7235 5.2765 16.5 5 16.5C4.7235 16.5 4.5 16.7235 4.5 17V27.5C4.5 27.7765 4.7235 28 5 28H23.5C23.7765 28 24 27.7765 24 27.5V0.5C24 0.2235 23.7765 0 23.5 0Z" fill="#E08524"/>
</svg>
