<svg width="46" height="66" viewBox="0 0 46 66" fill="none" xmlns="http://www.w3.org/2000/svg">
<path d="M22.7011 0C16.0216 0 10.5752 5.45111 10.5752 12.2147C10.5752 18.9788 15.9821 24.4294 22.7011 24.4294C29.42 24.4294 34.8269 18.9783 34.8269 12.2147C34.8269 5.45111 29.38 0 22.7011 0ZM22.7011 23.7531C16.3795 23.7531 11.2509 18.5806 11.2509 12.2147C11.2509 5.84875 16.3795 0.676252 22.7011 0.676252C29.0227 0.676252 34.1512 5.84875 34.1512 12.2147C34.1512 18.5812 29.0221 23.7531 22.7011 23.7531ZM28.9827 7.40034C27.9885 5.1725 26.796 4.2171 26.3987 4.25713C25.8419 4.29716 25.7624 5.37105 25.8024 5.84875C25.8024 6.0078 25.8424 6.76412 26.0013 7.36084C26.1208 7.79851 26.2797 8.23618 26.3987 8.67385V8.71388C26.4781 8.95246 26.5976 9.19158 26.6771 9.43016C27.3133 11.4194 26.876 13.4487 26.876 13.5282C26.876 13.5282 26.876 13.4882 26.876 13.4487C26.7565 13.9264 26.6376 14.2445 26.5181 14.4436C26.4781 14.5231 26.4781 14.5632 26.4387 14.6027C25.6835 11.4594 23.8941 9.2711 23.5363 9.58921C23.1784 9.90732 22.8205 12.6529 23.6557 15.9952C24.292 18.6212 25.564 20.5309 25.7629 20.849C25.7629 20.849 30.2952 17.7459 29.9773 11.8571C29.9763 9.86729 29.4995 8.51479 28.9827 7.40034ZM18.884 14.6021C18.884 14.5621 18.844 14.4826 18.8045 14.4431C18.6851 14.244 18.5661 13.9259 18.4467 13.4482C18.4467 13.4882 18.4467 13.5277 18.4467 13.5277C18.4067 13.4482 17.9693 11.4189 18.6056 9.42963C18.6851 9.19104 18.7645 8.95193 18.884 8.71334V8.67331C19.0429 8.23564 19.2019 7.79798 19.2813 7.36031C19.4403 6.76358 19.4803 5.96777 19.4803 5.84822C19.5203 5.37052 19.4803 4.29663 18.884 4.2566C18.5261 4.21656 17.2936 5.17196 16.3395 7.3998C15.8227 8.55375 15.3453 9.90626 15.2659 11.896C14.9875 17.7848 19.4803 20.888 19.4803 20.888C19.7187 20.5699 20.9512 18.6997 21.5875 16.0342C22.3827 12.6919 22.0648 9.94682 21.7069 9.62818C21.4285 9.27057 19.6397 11.4589 18.884 14.6021Z" fill="white"/>
<path d="M30.0557 11.8966C29.9362 9.90731 29.4594 8.55427 28.9821 7.40032C27.988 5.17248 26.7954 4.21708 26.3981 4.25711C25.8413 4.29714 25.7618 5.37103 25.8018 5.84873C25.8018 6.00778 25.8418 6.7641 26.0008 7.36082C26.1202 7.79849 26.2792 8.23616 26.3981 8.67383V8.71386C26.4776 8.95244 26.597 9.19156 26.6765 9.43014C27.3128 11.4194 26.8754 13.4487 26.8754 13.5282C26.8754 13.5282 26.8754 13.4882 26.8754 13.4487C26.756 13.9264 26.637 14.2445 26.5176 14.4436C26.4776 14.5231 26.4776 14.5631 26.4381 14.6026C25.6829 11.4594 23.8936 9.27108 23.5357 9.5892C23.1778 9.90731 22.82 12.6529 23.6552 15.9952C24.2914 18.6212 25.5634 20.5309 25.7624 20.849C25.8418 20.849 30.3741 17.7853 30.0557 11.8966ZM18.884 14.6021C18.884 14.5621 18.844 14.4825 18.8045 14.443C18.685 14.244 18.5661 13.9259 18.4466 13.4482C18.4466 13.4882 18.4466 13.5277 18.4466 13.5277C18.4066 13.4482 17.9693 11.4189 18.6056 9.42961C18.685 9.19102 18.7645 8.95191 18.884 8.71333V8.67329C19.0429 8.23563 19.2018 7.79796 19.2813 7.36029C19.4402 6.76356 19.4802 5.96775 19.4802 5.8482C19.5202 5.3705 19.4802 4.29661 18.884 4.25658C18.5261 4.21655 17.2936 5.17194 16.3394 7.39978C15.8226 8.55374 15.3453 9.90624 15.2658 11.896C14.9874 17.7848 19.4802 20.888 19.4802 20.888C19.7186 20.5699 20.9512 18.6996 21.5874 16.0341C22.3826 12.6918 22.0648 9.9468 21.7069 9.62816C21.4285 9.27055 19.6397 11.4589 18.884 14.6021Z" fill="white"/>
<path d="M30.0558 11.8965C29.9363 9.90726 29.4595 8.55422 28.9822 7.40027C27.9881 5.17243 26.7955 4.21703 26.3982 4.25706C25.8414 4.2971 25.7619 5.37098 25.8019 5.84868C25.8019 6.00774 25.8419 6.76405 26.0009 7.36078C26.1203 7.79844 26.2793 8.23611 26.3982 8.67378V8.71381C26.4777 8.9524 26.5971 9.19151 26.6766 9.43009C27.3129 11.4194 26.8755 13.4486 26.8755 13.5282C26.8755 13.5282 26.8755 13.4881 26.8755 13.4486C26.7561 13.9263 26.6371 14.2445 26.5177 14.4435C26.4777 14.5231 26.4777 14.5631 26.4382 14.6026C25.683 11.4594 23.8937 9.27104 23.5358 9.58915C23.1779 9.90726 22.8201 12.6528 23.6553 15.9951C24.2915 18.6211 25.5635 20.5309 25.7625 20.849C25.8419 20.849 30.3742 17.7853 30.0558 11.8965Z" fill="white"/>
<path d="M21.7864 9.58866C21.4285 9.27055 19.6397 11.4589 18.884 14.6021C18.884 14.5621 18.844 14.4825 18.8045 14.443C18.685 14.244 18.5661 13.9259 18.4466 13.4482C18.4466 13.4882 18.4466 13.5277 18.4466 13.5277C18.4066 13.4482 17.9693 11.4189 18.6056 9.42961C18.685 9.19102 18.7645 8.95191 18.884 8.71333V8.67329C19.0429 8.23563 19.2018 7.79796 19.2813 7.36029C19.4402 6.76356 19.4802 5.96775 19.4802 5.8482C19.5202 5.3705 19.4802 4.29661 18.884 4.25658C18.5261 4.21655 17.2936 5.17194 16.3394 7.39978C15.8226 8.55374 15.3453 9.90624 15.2658 11.896C14.9874 17.7848 19.4802 20.888 19.4802 20.888C19.7186 20.5699 20.9512 18.6996 21.5874 16.0341C22.5021 12.6523 22.1442 9.90731 21.7864 9.58866Z" fill="white"/>
<path d="M20.8855 36.4029C20.8055 35.6033 20.486 34.9234 19.8865 34.324C19.2871 33.724 18.6881 33.3643 18.0487 33.2047C17.4092 33.0446 16.9303 33.0046 16.6103 33.1647C16.5703 33.1647 16.5703 33.2047 16.5703 33.2447C16.5703 33.3248 16.7703 33.8847 17.2097 34.8438C18.0087 36.523 18.3681 38.4023 18.3681 40.4012C18.3681 42.2004 18.2081 43.9596 17.8887 45.6388C17.5692 47.3179 17.1697 48.7574 16.6903 49.9167C16.2108 51.076 15.6913 52.1157 15.1324 52.9953C14.5729 53.8749 14.0535 54.5149 13.574 54.9547C13.0945 55.3945 12.6951 55.5546 12.4156 55.5146C11.3367 55.3945 10.6577 53.3956 10.3783 49.597C11.7767 46.4783 12.7756 43.2796 13.3745 40.0014C13.694 38.2021 13.6145 36.9628 13.2145 36.2433C12.8151 35.5238 12.1756 35.3637 11.2567 35.7234C10.1777 36.1232 9.33881 37.0428 8.65987 38.4423C7.98094 39.8418 7.62094 41.641 7.50147 43.76C7.34147 46.9587 7.58147 49.7571 8.26041 52.1563C7.66094 53.2761 7.06201 54.1557 6.46254 54.7151C5.86307 55.315 5.38361 55.5546 4.94414 55.4746C4.22521 55.3545 3.66574 54.1151 3.22628 51.7565C2.82681 49.3974 2.78681 46.5589 3.10628 43.2401C3.54574 38.6419 3.90521 35.9236 4.22521 35.084C4.22521 35.004 4.06521 34.9639 3.74574 34.9239C3.38627 34.8839 2.94681 34.9239 2.38734 35.044C1.82788 35.1641 1.38841 35.3237 0.948942 35.6839C0.709475 35.8841 0.509475 36.4435 0.389475 37.4031C0.269475 38.3628 0.150008 40.4818 0.0300083 43.8401C-0.0499917 45.7994 0.0300085 47.6782 0.269475 49.3974C0.508942 51.1166 0.868942 52.5561 1.30841 53.6753C1.74788 54.7951 2.26734 55.6747 2.82681 56.3141C3.38627 56.9541 3.94521 57.1938 4.50467 57.1537C5.62308 56.9936 6.94147 55.6742 8.49987 53.1154C8.93934 54.4348 9.45881 55.4345 10.0977 56.154C10.6972 56.8735 11.3361 57.1938 11.9356 57.1537C12.6945 57.1137 13.6135 56.5138 14.7324 55.3144C15.8508 54.1151 16.8897 52.6356 17.8887 50.7963C18.8876 48.957 19.6865 46.758 20.286 44.1192C20.9255 41.4809 21.1249 38.9216 20.8855 36.4029ZM10.2183 42.9199C10.2583 41.1607 10.4577 39.7212 10.7777 38.5218C11.0972 37.3225 11.4567 36.6826 11.8567 36.5225C12.0167 36.4824 12.1361 36.5625 12.2561 36.8021C12.4956 37.4021 12.4956 38.4012 12.2561 39.7607C11.7367 42.6397 11.0577 45.278 10.2188 47.5971C10.1783 46.2787 10.1783 44.7191 10.2183 42.9199Z" fill="white"/>
<path d="M24.8806 49.9168C25.0006 49.1573 24.8406 48.4773 24.4411 47.9174C24.0417 47.3575 23.4822 47.0378 22.8033 46.9978C21.8843 46.9177 20.9654 47.3175 20.1665 48.2371C19.3275 49.1167 18.8081 50.3561 18.6481 51.9157C18.4481 53.4753 18.6881 54.7146 19.407 55.5542C20.0859 56.3938 20.9254 56.8736 21.8438 56.9137C22.9227 56.9537 23.8811 56.4338 24.7201 55.2745C25.559 54.1152 26.1585 52.7158 26.4779 50.9566C26.5179 50.8365 26.4779 50.7564 26.3579 50.7964C26.1979 50.8365 26.1185 50.9165 26.0385 51.0361C25.639 52.7152 25.0795 53.9946 24.4006 54.8342C23.7211 55.6738 23.0422 56.0335 22.4027 55.9535C21.9233 55.8734 21.5638 55.3936 21.3243 54.5139C21.1243 53.6343 21.0843 52.5151 21.2443 51.1957C21.5638 48.717 22.0033 47.4376 22.4827 47.4376C22.8422 47.4376 22.8422 48.3973 22.5227 50.276C22.2833 51.6355 21.9233 52.5151 21.4838 52.9549C21.3238 53.115 21.2838 53.2346 21.2838 53.3146C21.2838 53.4347 21.4038 53.4347 21.6433 53.3547C22.4022 53.0349 23.0817 52.5951 23.7206 51.9552C24.4011 51.2763 24.7606 50.5968 24.8806 49.9168Z" fill="white"/>
<path d="M32.3517 36.4029C32.5117 35.2831 32.4717 34.364 32.3117 33.724C32.1117 33.0841 31.7522 32.8044 31.2728 32.8845C30.1544 33.1241 28.9954 34.9634 27.797 38.4818C26.5986 42.0002 25.8392 45.6788 25.5197 49.557C25.3997 50.9164 25.3997 52.1558 25.5197 53.315C25.6397 54.4743 25.9192 55.434 26.3986 56.2335C26.8381 57.0331 27.4376 57.4329 28.1965 57.4729C28.836 57.5129 29.5549 56.913 30.3538 55.6737C31.1528 54.4343 31.7122 52.8747 32.0717 50.9559C32.0717 50.8358 32.0717 50.7958 31.9517 50.7958C31.7517 50.7958 31.6722 50.8758 31.6322 50.9959C31.3128 52.4354 30.9133 53.6748 30.3938 54.6345C29.8744 55.5941 29.3949 56.074 28.9554 55.9939C28.2365 55.8738 27.9565 54.1947 28.1165 50.9959C29.1554 48.5172 30.0744 45.8784 30.8333 43.1195C31.5522 40.4011 32.0717 38.1221 32.3517 36.4029ZM28.1565 48.8375C28.396 45.7188 28.796 42.6002 29.4349 39.4815C30.0744 36.3629 30.6333 34.7237 31.1528 34.5636L31.2728 34.6036C31.4728 34.8038 31.5122 35.4832 31.4328 36.603C31.0733 39.9613 29.9944 44.1197 28.157 49.0777C28.157 49.0777 28.157 49.0376 28.157 48.9576C28.1565 48.8775 28.1565 48.8375 28.1565 48.8375Z" fill="white"/>
<path d="M30.6333 56.114C30.6733 56.2741 30.8727 56.3937 31.2327 56.4737C31.5922 56.5538 31.9517 56.5938 32.3117 56.5938C32.6711 56.5938 32.8311 56.5138 32.8311 56.3937V56.114C33.3906 52.5555 33.9101 50.5567 34.429 50.1964C34.469 50.1964 34.509 50.1964 34.509 50.2364C34.509 50.2764 34.509 50.3565 34.509 50.4761C34.509 50.5962 34.469 50.7557 34.469 50.8758C34.469 51.036 34.429 51.2356 34.349 51.5558C34.309 51.8355 34.269 52.1157 34.229 52.3554C34.109 53.235 34.069 53.9545 34.109 54.5544C34.149 55.1543 34.269 55.5941 34.3885 55.9539C34.5085 56.2736 34.6679 56.5138 34.9079 56.6733C35.1079 56.8335 35.3074 56.9135 35.5074 56.9135C35.7074 56.9135 35.8669 56.9135 36.0669 56.8735C36.5063 56.7134 36.9858 56.074 37.4653 54.9542C37.9447 53.8349 38.3442 52.5155 38.6237 51.036V50.9959C38.6237 50.9159 38.6237 50.8758 38.5037 50.8758C38.3437 50.9159 38.2642 50.9959 38.1842 51.076C37.3853 54.3948 36.7858 55.9939 36.3463 55.8738C36.1069 55.7937 36.0269 55.5941 36.0269 55.1943C36.0269 54.7946 36.0669 54.3147 36.1469 53.6347C36.2269 52.9948 36.3469 52.3554 36.4263 51.6754C36.5463 51.0354 36.6263 50.2759 36.7858 49.4764C36.9058 48.6768 36.9858 48.0369 37.0653 47.557C37.1053 47.1973 37.0653 46.9171 36.9053 46.7975C36.7453 46.6374 36.5058 46.6374 36.1863 46.7575C34.8679 47.2373 33.829 49.1166 33.0701 52.4349C33.3095 49.8761 33.4295 48.3966 33.5095 48.0769C33.5895 47.3974 33.6695 46.9576 33.7095 46.7975C33.6295 46.8375 33.3901 46.7975 32.9906 46.7975C32.5911 46.7975 32.1517 46.8375 31.6722 46.9977C31.1927 47.1578 30.9533 47.3174 30.9133 47.5576C30.9133 47.5576 30.9133 47.6376 30.9133 47.7577C30.9133 47.8778 30.9133 48.0374 30.8733 48.1975C30.8733 48.3977 30.8733 48.5573 30.8733 48.7574C30.8733 49.1572 30.8333 49.9167 30.7533 51.1166C30.6733 52.3159 30.6333 53.3956 30.5933 54.3953C30.5938 55.4345 30.5938 55.9939 30.6333 56.114Z" fill="white"/>
<path d="M40.661 47.0782C40.621 47.0381 40.3416 46.9981 39.9421 46.9581C39.5026 46.9581 39.0232 46.9981 38.5437 47.1582C38.0242 47.2783 37.7448 47.4779 37.7448 47.7181L37.6648 48.3981C37.6648 48.6378 37.6248 48.998 37.6248 49.5174C37.5048 51.4767 37.5848 53.1959 37.8642 54.6349C38.1437 56.0744 38.6632 56.8339 39.4226 56.8339C39.9421 56.8339 40.4616 56.1144 40.9805 54.6349C40.9805 54.835 40.9005 55.3143 40.8205 56.0744C40.7405 56.7939 40.7005 57.3538 40.6605 57.7135C39.7416 57.8336 38.8626 58.1533 38.0637 58.6332C37.2248 59.113 36.5453 59.7524 36.0664 60.4724C35.4269 61.3921 35.0274 62.3117 34.948 63.2313C34.868 64.151 35.028 64.8304 35.4274 65.3503C35.8269 65.8301 36.3864 66.0298 37.1453 65.8301C39.0632 65.3903 40.621 63.4315 41.7794 59.9926C42.8184 60.3123 43.8968 60.8322 44.9757 61.5917C45.0557 61.5917 45.1757 61.4316 45.2552 61.1119C45.5346 60.1522 45.4152 59.4327 44.8557 58.9128C44.2162 58.2729 43.4173 57.8731 42.4189 57.7135C42.9384 55.5545 43.4978 51.956 44.0568 46.8385C44.0168 46.7985 43.8173 46.7585 43.4573 46.7184C43.0978 46.6784 42.7384 46.7585 42.2989 46.8785C41.8594 46.9986 41.6594 47.1983 41.6594 47.3984C41.6194 47.7181 41.5794 47.9583 41.5394 48.1579L41.4194 49.0776V49.1176C41.4194 49.2777 41.3794 49.4373 41.3394 49.5974L41.2194 49.9972C41.2194 50.1173 41.1794 50.2769 41.1394 50.477C40.9794 51.3967 40.86 52.1162 40.78 52.636C40.7 53.1559 40.58 53.7158 40.4605 54.2751C40.3405 54.835 40.2205 55.2348 40.141 55.4745C40.061 55.7141 39.941 55.8342 39.8216 55.8342C39.7016 55.8342 39.6616 55.5946 39.6616 55.1548C39.6616 54.7149 39.7016 54.0355 39.8216 53.1954C39.9016 52.3558 40.0216 51.4362 40.181 50.4365C40.3016 49.4368 40.4616 48.3175 40.661 47.0782ZM37.7448 64.8699C37.1053 65.1096 36.5864 65.03 36.2264 64.6698C35.8669 64.31 35.7069 63.7501 35.7069 63.0307C35.7469 62.3112 35.9864 61.5912 36.4658 60.9117C37.2248 59.8319 38.5032 59.4322 40.341 59.7124C39.8226 62.6709 38.9832 64.3901 37.7448 64.8699Z" fill="white"/>
</svg>
