<svg viewBox="0 0 68 29" fill="none" xmlns="http://www.w3.org/2000/svg">
<path d="M10.6262 1.23744C4.7728 1.23744 0 6.0226 0 11.9599C0 17.8976 4.73821 22.6823 10.6262 22.6823C16.5141 22.6823 21.2523 17.8976 21.2523 11.9603C21.2523 6.0226 16.4795 1.23744 10.6262 1.23744ZM10.6262 22.0891C5.0864 22.0891 0.59216 17.5486 0.59216 11.9603C0.59216 6.37212 5.0864 1.83154 10.6262 1.83154C16.1659 1.83154 20.6602 6.37212 20.6602 11.9603C20.6602 17.5486 16.1659 22.0891 10.6262 22.0891ZM16.1309 7.73416C15.2597 5.77849 14.2146 4.93981 13.8664 4.97495C13.3785 5.01009 13.3089 5.95278 13.3439 6.37212C13.3439 6.51175 13.379 7.17566 13.5182 7.69948C13.6229 8.08368 13.7622 8.46788 13.8664 8.85208V8.88722C13.9361 9.09666 14.0408 9.30656 14.1104 9.516C14.668 11.2622 14.2847 13.0436 14.2847 13.1134C14.2847 13.1134 14.2847 13.0783 14.2847 13.0436C14.18 13.4629 14.0758 13.7422 13.9711 13.917C13.9361 13.9868 13.9361 14.0219 13.9015 14.0566C13.2397 11.2974 11.6717 9.37637 11.3581 9.65562C11.0445 9.93487 10.7308 12.345 11.4628 15.279C12.0203 17.5842 13.135 19.2606 13.3093 19.5398C13.3093 19.5398 17.2811 16.8158 17.0025 11.6464C17.002 9.89973 16.5837 8.71199 16.1309 7.73416ZM7.28165 14.0556C7.28165 14.0205 7.24659 13.9507 7.21201 13.916C7.10732 13.7413 7.00309 13.462 6.8984 13.0427C6.8984 13.0778 6.8984 13.1125 6.8984 13.1125C6.86335 13.0427 6.4801 11.2613 7.03768 9.51506C7.10732 9.30562 7.17695 9.09572 7.28165 8.88629V8.85114C7.42092 8.46695 7.5602 8.08275 7.62984 7.69855C7.76911 7.17472 7.80417 6.47614 7.80417 6.37119C7.83922 5.95185 7.80417 5.00915 7.28165 4.97401C6.96804 4.93887 5.88794 5.77755 5.05182 7.73322C4.59893 8.74619 4.18064 9.93346 4.111 11.6802C3.86703 16.8495 7.80417 19.5736 7.80417 19.5736C8.01308 19.2943 9.09318 17.6526 9.65075 15.3127C10.3476 12.3787 10.069 9.96907 9.75544 9.68935C9.51148 9.37544 7.94344 11.2964 7.28165 14.0556Z" fill="#E08524"/>
<path d="M17.0717 11.6806C16.967 9.93434 16.5491 8.74661 16.1308 7.73363C15.2597 5.77796 14.2146 4.93929 13.8664 4.97443C13.3785 5.00957 13.3089 5.95226 13.3439 6.3716C13.3439 6.51122 13.379 7.17514 13.5182 7.69896C13.6229 8.08316 13.7622 8.46736 13.8664 8.85156V8.8867C13.9361 9.09613 14.0408 9.30604 14.1104 9.51547C14.668 11.2617 14.2847 13.0431 14.2847 13.1129C14.2847 13.1129 14.2847 13.0777 14.2847 13.0431C14.18 13.4624 14.0758 13.7417 13.9711 13.9164C13.9361 13.9862 13.9361 14.0214 13.9015 14.056C13.2397 11.2968 11.6717 9.37585 11.358 9.6551C11.0444 9.93434 10.7308 12.3445 11.4627 15.2785C12.0203 17.5837 13.135 19.2601 13.3093 19.5393C13.3785 19.5393 17.3502 16.8499 17.0717 11.6806ZM7.28163 14.0556C7.28163 14.0204 7.24658 13.9506 7.21199 13.916C7.1073 13.7412 7.00308 13.4619 6.89839 13.0426C6.89839 13.0777 6.89839 13.1124 6.89839 13.1124C6.86334 13.0426 6.48009 11.2612 7.03767 9.515C7.1073 9.30557 7.17694 9.09567 7.28163 8.88623V8.85109C7.42091 8.46689 7.56019 8.08269 7.62983 7.69849C7.7691 7.17467 7.80415 6.47608 7.80415 6.37113C7.83921 5.95179 7.80415 5.0091 7.28163 4.97396C6.96803 4.93882 5.88793 5.7775 5.0518 7.73316C4.59892 8.74614 4.18062 9.93341 4.11099 11.6801C3.86702 16.8495 7.80415 19.5735 7.80415 19.5735C8.01307 19.2943 9.09316 17.6525 9.65074 15.3127C10.3476 12.3787 10.069 9.96901 9.75543 9.6893C9.51146 9.37538 7.94343 11.2964 7.28163 14.0556Z" fill="#E08524"/>
<path d="M17.0718 11.6806C16.9671 9.93435 16.5493 8.74661 16.131 7.73364C15.2598 5.77797 14.2147 4.93929 13.8665 4.97443C13.3786 5.00957 13.309 5.95227 13.344 6.3716C13.344 6.51123 13.3791 7.17514 13.5184 7.69897C13.623 8.08316 13.7623 8.46736 13.8665 8.85156V8.8867C13.9362 9.09614 14.0409 9.30604 14.1105 9.51548C14.6681 11.2617 14.2848 13.0431 14.2848 13.1129C14.2848 13.1129 14.2848 13.0778 14.2848 13.0431C14.1801 13.4624 14.0759 13.7417 13.9712 13.9164C13.9362 13.9862 13.9362 14.0214 13.9016 14.0561C13.2398 11.2968 11.6718 9.37585 11.3582 9.6551C11.0446 9.93435 10.7309 12.3445 11.4629 15.2785C12.0204 17.5837 13.1351 19.2601 13.3094 19.5393C13.3786 19.5393 17.3503 16.8499 17.0718 11.6806Z" fill="#E08524"/>
<path d="M9.82507 9.6551C9.51146 9.37585 7.9439 11.2968 7.28163 14.0561C7.28163 14.0209 7.24658 13.9511 7.21199 13.9164C7.1073 13.7417 7.00308 13.4624 6.89839 13.0431C6.89839 13.0782 6.89839 13.1129 6.89839 13.1129C6.86334 13.0431 6.48009 11.2617 7.03767 9.51548C7.1073 9.30604 7.17694 9.09614 7.28163 8.8867V8.85156C7.42091 8.46736 7.56019 8.08316 7.62983 7.69897C7.7691 7.17514 7.80415 6.47656 7.80415 6.3716C7.83921 5.95227 7.80415 5.00957 7.28163 4.97443C6.96803 4.93929 5.88793 5.77797 5.0518 7.73364C4.59892 8.74661 4.18062 9.93388 4.11099 11.6806C3.86702 16.8499 7.80415 19.574 7.80415 19.574C8.01307 19.2948 9.09316 17.653 9.65074 15.3131C10.4523 12.3445 10.1387 9.93435 9.82507 9.6551Z" fill="#E08524"/>
<path d="M46.5167 3.10031C46.4466 2.39845 46.1667 1.80153 45.6414 1.27537C45.116 0.748734 44.5912 0.432941 44.0308 0.292849C43.4704 0.152289 43.0507 0.117148 42.7703 0.257709C42.7352 0.257709 42.7352 0.292849 42.7352 0.327989C42.7352 0.39827 42.9105 0.889763 43.2956 1.73172C43.9957 3.20573 44.3108 4.85545 44.3108 6.61011C44.3108 8.18954 44.1705 9.73384 43.8906 11.2079C43.6106 12.6819 43.2606 13.9455 42.8404 14.9632C42.4202 15.9808 41.965 16.8935 41.4752 17.6657C40.9849 18.4378 40.5297 18.9996 40.1096 19.3857C39.6894 19.7717 39.3393 19.9123 39.0944 19.8772C38.1489 19.7717 37.554 18.0171 37.3091 14.6825C38.5345 11.9449 39.4099 9.13692 39.9348 6.25918C40.2147 4.67975 40.1451 3.59181 39.7945 2.96022C39.4445 2.32864 38.8841 2.18808 38.0788 2.50387C37.1333 2.8548 36.3982 3.66209 35.8032 4.89059C35.2082 6.11909 34.8928 7.69852 34.7881 9.55861C34.6478 12.3665 34.8582 14.8231 35.4531 16.9291C34.9278 17.9121 34.4029 18.6843 33.8776 19.1753C33.3523 19.7019 32.9321 19.9123 32.547 19.842C31.917 19.7366 31.4267 18.6487 31.0416 16.5782C30.6915 14.5073 30.6565 12.0156 30.9364 9.10225C31.3216 5.06582 31.6366 2.67957 31.917 1.94256C31.917 1.87228 31.7768 1.83714 31.4968 1.802C31.1818 1.76686 30.7967 1.802 30.3064 1.90742C29.8162 2.01284 29.431 2.15293 29.0459 2.4692C28.8361 2.6449 28.6608 3.13592 28.5557 3.97835C28.4505 4.82078 28.3458 6.68086 28.2407 9.62889C28.1705 11.3489 28.2407 12.9981 28.4505 14.5073C28.6604 16.0164 28.9758 17.2801 29.3609 18.2626C29.7461 19.2456 30.2013 20.0177 30.6915 20.579C31.1818 21.1408 31.6716 21.3512 32.1619 21.316C33.142 21.1755 34.2973 20.0173 35.663 17.7711C36.0481 18.9293 36.5033 19.8069 37.0632 20.4385C37.5885 21.0701 38.1485 21.3512 38.6738 21.316C39.3389 21.2809 40.1441 20.7543 41.1247 19.7015C42.1048 18.6487 43.0152 17.3499 43.8906 15.7353C44.766 14.1207 45.4661 12.1904 45.9914 9.87393C46.5523 7.55749 46.7271 5.31133 46.5167 3.10031ZM37.1693 8.82113C37.2044 7.27684 37.3792 6.0132 37.6596 4.9604C37.9395 3.9076 38.2546 3.34583 38.6051 3.20527C38.7453 3.17013 38.85 3.24041 38.9551 3.45078C39.165 3.97741 39.165 4.85451 38.9551 6.04787C38.4999 8.57515 37.905 10.8911 37.1698 12.9269C37.1343 11.7696 37.1343 10.4006 37.1693 8.82113Z" fill="#E08524"/>
<path d="M50.0174 14.9631C50.1226 14.2964 49.9823 13.6995 49.6323 13.208C49.2822 12.7165 48.7919 12.4359 48.197 12.4007C47.3917 12.3304 46.5864 12.6814 45.8863 13.4887C45.1511 14.2608 44.6959 15.3488 44.5557 16.7178C44.3804 18.0869 44.5907 19.1748 45.2208 19.9118C45.8157 20.6488 46.5514 21.07 47.3562 21.1052C48.3017 21.1403 49.1415 20.684 49.8767 19.6663C50.6119 18.6486 51.1372 17.4201 51.4172 15.8759C51.4522 15.7704 51.4172 15.7002 51.312 15.7353C51.1718 15.7704 51.1022 15.8407 51.0321 15.9457C50.682 17.4197 50.1917 18.5428 49.5968 19.2798C49.0013 20.0168 48.4064 20.3326 47.846 20.2623C47.4258 20.192 47.1108 19.7708 46.901 18.9986C46.7257 18.2265 46.6906 17.244 46.8309 16.0858C47.1108 13.9099 47.4959 12.7868 47.9161 12.7868C48.2311 12.7868 48.2311 13.6292 47.9511 15.2785C47.7413 16.4718 47.4258 17.244 47.0407 17.6301C46.9005 17.7706 46.8654 17.8756 46.8654 17.9458C46.8654 18.0513 46.9706 18.0513 47.1804 17.981C47.8455 17.7003 48.4409 17.3143 49.0009 16.7525C49.5977 16.1565 49.9127 15.5601 50.0174 14.9631Z" fill="#E08524"/>
<path d="M56.5644 3.10029C56.7046 2.1173 56.6696 1.31048 56.5294 0.748706C56.3541 0.186932 56.0391 -0.0585807 55.6189 0.0116996C54.6389 0.222072 53.6233 1.83665 52.5731 4.92523C51.5229 8.01382 50.8574 11.243 50.5774 14.6473C50.4722 15.8407 50.4722 16.9286 50.5774 17.9463C50.6826 18.964 50.9275 19.8064 51.3476 20.5083C51.7327 21.2101 52.2581 21.5611 52.9231 21.5962C53.4835 21.6313 54.1135 21.1047 54.8137 20.0168C55.5138 18.9288 56.0041 17.5598 56.3191 15.8754C56.3191 15.77 56.3191 15.7348 56.2139 15.7348C56.0386 15.7348 55.969 15.8051 55.9339 15.9105C55.654 17.1742 55.3039 18.2621 54.8487 19.1045C54.3935 19.9469 53.9733 20.3682 53.5882 20.2979C52.9582 20.1925 52.7128 18.7184 52.853 15.9105C53.7635 13.7346 54.5688 11.4182 55.2338 8.99634C55.8643 6.61008 56.3195 4.60944 56.5644 3.10029ZM52.8886 14.0158C53.0984 11.2781 53.4489 8.54045 54.0088 5.8028C54.5692 3.06515 55.059 1.62627 55.5143 1.48571L55.6194 1.52085C55.7947 1.69655 55.8293 2.293 55.7596 3.27599C55.4446 6.22401 54.4991 9.87437 52.889 14.2266C52.889 14.2266 52.889 14.1915 52.889 14.1212C52.8886 14.0509 52.8886 14.0158 52.8886 14.0158Z" fill="#E08524"/>
<path d="M55.0592 20.4034C55.0943 20.5439 55.2691 20.6489 55.5845 20.7192C55.8996 20.7894 56.2146 20.8246 56.53 20.8246C56.8451 20.8246 56.9853 20.7543 56.9853 20.6489V20.4034C57.4755 17.2796 57.9307 15.525 58.3855 15.2087C58.4206 15.2087 58.4556 15.2087 58.4556 15.2439C58.4556 15.279 58.4556 15.3493 58.4556 15.4542C58.4556 15.5596 58.4206 15.6997 58.4206 15.8052C58.4206 15.9457 58.3855 16.1209 58.3154 16.4021C58.2803 16.6476 58.2453 16.8936 58.2102 17.1039C58.1051 17.8761 58.07 18.5077 58.1051 19.0343C58.1401 19.5609 58.2453 19.947 58.35 20.2628C58.4551 20.5435 58.5949 20.7543 58.8052 20.8944C58.9805 21.035 59.1553 21.1052 59.3305 21.1052C59.5058 21.1052 59.6455 21.1052 59.8208 21.0701C60.2059 20.9295 60.6261 20.3682 61.0463 19.3852C61.4664 18.4027 61.8165 17.2445 62.0614 15.9457V15.9106C62.0614 15.8403 62.0614 15.8052 61.9562 15.8052C61.816 15.8403 61.7464 15.9106 61.6763 15.9809C60.9761 18.8942 60.4508 20.2979 60.0657 20.1925C59.8559 20.1222 59.7857 19.947 59.7857 19.5961C59.7857 19.2451 59.8208 18.8239 59.8909 18.227C59.961 17.6652 60.0662 17.1039 60.1358 16.507C60.241 15.9452 60.3111 15.2785 60.4508 14.5767C60.556 13.8748 60.6261 13.313 60.6957 12.8918C60.7308 12.576 60.6957 12.33 60.5555 12.2251C60.4153 12.0845 60.2055 12.0845 59.9255 12.1899C58.7702 12.6112 57.8597 14.2609 57.1946 17.1737C57.4045 14.9276 57.5096 13.6288 57.5798 13.3482C57.6499 12.7517 57.72 12.3656 57.755 12.2251C57.6849 12.2602 57.4751 12.2251 57.125 12.2251C56.7749 12.2251 56.3898 12.2602 55.9697 12.4008C55.5495 12.5413 55.3396 12.6814 55.3046 12.8923C55.3046 12.8923 55.3046 12.9626 55.3046 13.068C55.3046 13.1734 55.3046 13.3135 55.2695 13.454C55.2695 13.6297 55.2695 13.7698 55.2695 13.9455C55.2695 14.2965 55.2345 14.9632 55.1644 16.0165C55.0943 17.0693 55.0592 18.0171 55.0242 18.8947C55.0242 19.8069 55.0242 20.2979 55.0592 20.4034Z" fill="#E08524"/>
<path d="M63.8468 12.4715C63.8117 12.4364 63.5668 12.4012 63.2167 12.3661C62.8316 12.3661 62.4115 12.4012 61.9913 12.5418C61.5361 12.6472 61.2912 12.8224 61.2912 13.0333L61.2211 13.6302C61.2211 13.8406 61.186 14.1568 61.186 14.6127C61.0809 16.3327 61.151 17.8418 61.3959 19.105C61.6408 20.3687 62.096 21.0354 62.7615 21.0354C63.2167 21.0354 63.672 20.4038 64.1267 19.105C64.1267 19.2807 64.0566 19.7015 63.9865 20.3687C63.9164 21.0002 63.8813 21.4917 63.8463 21.8075C63.041 21.913 62.2708 22.1936 61.5707 22.6148C60.8355 23.036 60.2401 23.5973 59.8204 24.2294C59.26 25.0367 58.9099 25.844 58.8403 26.6513C58.7702 27.4585 58.9104 28.055 59.2605 28.5113C59.6105 28.9326 60.1008 29.1078 60.7659 28.9326C62.4465 28.5465 63.8117 26.827 64.8268 23.8082C65.7373 24.0888 66.6823 24.5452 67.6278 25.2119C67.6979 25.2119 67.8031 25.0714 67.8727 24.7907C68.1176 23.9483 68.0129 23.3167 67.5226 22.8603C66.9623 22.2986 66.2621 21.9476 65.3872 21.8075C65.8424 19.9123 66.3327 16.7534 66.8225 12.2611C66.7875 12.226 66.6127 12.1908 66.2972 12.1557C65.9822 12.1206 65.6672 12.1908 65.2821 12.2963C64.897 12.4017 64.7217 12.5769 64.7217 12.7526C64.6866 13.0333 64.6516 13.2441 64.6165 13.4193L64.5114 14.2266V14.2618C64.5114 14.4023 64.4763 14.5424 64.4413 14.683L64.3361 15.0339C64.3361 15.1393 64.301 15.2794 64.266 15.4551C64.1258 16.2624 64.0211 16.894 63.951 17.3504C63.8809 17.8067 63.7757 18.2982 63.671 18.7892C63.5659 19.2807 63.4607 19.6317 63.3911 19.842C63.321 20.0524 63.2158 20.1578 63.1111 20.1578C63.006 20.1578 62.9709 19.9474 62.9709 19.5614C62.9709 19.1753 63.006 18.5789 63.1111 17.8414C63.1812 17.1044 63.2864 16.2971 63.4261 15.4195C63.5318 14.542 63.672 13.5594 63.8468 12.4715ZM61.2912 28.0897C60.7308 28.3 60.276 28.2302 59.9606 27.914C59.6456 27.5982 59.5054 27.1067 59.5054 26.4751C59.5404 25.8435 59.7503 25.2114 60.1704 24.615C60.8355 23.6672 61.9558 23.3162 63.5663 23.5622C63.1116 26.1593 62.3764 27.6684 61.2912 28.0897Z" fill="#E08524"/>
</svg>
