<svg width="60" height="54" viewBox="0 0 60 54" fill="none" xmlns="http://www.w3.org/2000/svg">
<path d="M57.1113 26.2303V4.79605C57.1113 2.13158 54.8847 0 52.1163 0H8.00401C5.23571 0 3.00903 2.13158 3.00903 4.79605V19.2434C1.32397 19.2434 0 20.5461 0 22.1447V51.0395C0 52.6382 1.32397 53.9408 3.00903 53.9408H25.0953C26.7803 53.9408 28.1043 52.6382 28.1043 51.0395H36.5296C37.4925 51.0395 38.335 50.625 38.9368 49.9145C39.5386 49.2039 39.7192 48.2566 39.4784 47.4276L37.4925 39.9079H43.2096V51.0987C43.2096 52.6974 44.5336 54 46.2187 54H57.2317C58.9167 54 60 52.7566 60 51.1579V29.25C59.8796 27.5329 58.7964 26.2303 57.1113 26.2303ZM26.66 51.0395C26.66 51.8684 25.9378 52.5789 25.0351 52.5789H2.94885C2.04614 52.5789 1.32397 51.8684 1.32397 51.0395V48.4934H26.5998V51.0395H26.66ZM26.66 47.7829H1.38415V25.4013H26.66V47.7829ZM26.66 24.6316H1.38415V22.0855C1.38415 21.2566 2.10632 20.5461 3.00903 20.5461H25.0953C25.998 20.5461 26.7202 21.2566 26.7202 22.0855V24.6316H26.66ZM37.9739 47.7237C38.0943 48.1974 38.0341 48.6711 37.673 49.0855C37.3721 49.4408 36.8907 49.6776 36.4092 49.6776H27.9839V46.5395H37.6128L37.9739 47.7237ZM37.4925 45.8289H28.0441V39.8487H35.7472L37.4925 45.8289ZM43.0893 38.4868H28.0441V32.4474H43.0893V38.4868ZM43.0893 31.0855H28.0441V21.5526C28.0441 20.3092 26.9609 19.2434 25.6369 19.2434H4.39318V4.79605C4.39318 2.90132 6.01805 1.30263 8.00401 1.30263H52.1163C54.1023 1.30263 55.7272 2.84211 55.7272 4.79605V26.2303C52.4172 26.2303 49.1073 26.2303 45.7974 26.2303C44.2929 26.2303 43.0893 27.4145 43.0893 28.8947V31.0855ZM58.6158 51.3355C58.6158 52.1645 57.8937 52.875 56.991 52.875H45.9779C45.0752 52.875 44.3531 52.1645 44.3531 51.3355V48.7895H58.6158V51.3355ZM58.6158 48.0789H44.3531V32.4474H58.6158V48.0789ZM58.6158 31.6776H44.3531V29.1316C44.3531 28.3026 45.0752 27.5921 45.9779 27.5921H56.991C57.8937 27.5921 58.6158 28.3026 58.6158 29.1316V31.6776Z" fill="#E08629"/>
<path d="M43.4503 10.3026L37.4323 16.1052L38.335 16.9934L44.353 11.1907L43.4503 10.3026Z" fill="#E08629"/>
<path d="M35.9879 17.7632L32.016 21.6119L32.8585 22.4409L36.8906 18.5922L35.9879 17.7632Z" fill="#E08629"/>
<path d="M42.1265 6.98689L36.1084 12.7895L37.0111 13.6777L43.0292 7.87505L42.1265 6.98689Z" fill="#E08629"/>
<path d="M55.005 37.9541L48.9869 43.7568L49.8896 44.6449L55.9077 38.8423L55.005 37.9541Z" fill="#E08629"/>
<path d="M53.6811 34.6382L47.6631 40.4409L48.5658 41.329L54.5838 35.5264L53.6811 34.6382Z" fill="#E08629"/>
<path d="M34.7241 14.4474L30.692 18.296L31.5345 19.125L35.5666 15.2763L34.7241 14.4474Z" fill="#E08629"/>
<path d="M20.7623 32.4475L14.7443 38.2501L15.647 39.1383L21.665 33.3357L20.7623 32.4475Z" fill="#E08629"/>
<path d="M13.36 39.9078L9.32788 43.7565L10.1704 44.5854L14.2025 40.7367L13.36 39.9078Z" fill="#E08629"/>
<path d="M19.4382 29.1316L7.703 40.4408L8.60571 41.329L20.4011 30.0198L19.4382 29.1316Z" fill="#E08629"/>
<path d="M8.42541 2.60519H6.98108V3.96704H8.42541V2.60519Z" fill="#E08629"/>
<path d="M11.3138 2.60519H9.86951V3.96704H11.3138V2.60519Z" fill="#E08629"/>
<path d="M14.2028 2.60519H12.7584V3.96704H14.2028V2.60519Z" fill="#E08629"/>
</svg>
