<svg width="32" height="23" viewBox="0 0 32 23" fill="none" xmlns="http://www.w3.org/2000/svg"><path d="M2.286 4.6h27.428A2.294 2.294 0 0 0 32 2.3C32 1.03 30.976 0 29.714 0H2.286A2.294 2.294 0 0 0 0 2.3c0 1.27 1.024 2.3 2.286 2.3zm27.428 4.6H2.286A2.294 2.294 0 0 0 0 11.5c0 1.27 1.024 2.3 2.286 2.3h27.428A2.294 2.294 0 0 0 32 11.5c0-1.27-1.024-2.3-2.286-2.3zm0 9.2H2.286A2.294 2.294 0 0 0 0 20.7C0 21.97 1.024 23 2.286 23h27.428A2.294 2.294 0 0 0 32 20.7c0-1.27-1.024-2.3-2.286-2.3z" fill="#E08524"/></svg>