<svg width="63" height="56" viewBox="0 0 63 56" fill="none" xmlns="http://www.w3.org/2000/svg"><path d="M49.4 10.864H13.544c-.506 0-.899.336-.899.784s.393.784.9.784H49.4c.506 0 .899-.336.899-.784 0-.392-.393-.784-.9-.784zm0 9.52H13.544c-.506 0-.899.336-.899.784s.393.784.9.784H49.4c.506 0 .899-.336.899-.784s-.393-.784-.9-.784zm-11.746 5.432H25.29c-.506 0-.9.336-.9.784s.394.784.9.784h12.364c.506 0 .9-.336.9-.784s-.394-.784-.9-.784zM49.4 15.624H22.649c-.506 0-.9.336-.9.784s.394.784.9.784h26.75c.507 0 .9-.336.9-.784s-.393-.784-.9-.784zm-31.023 0h-4.833c-.506 0-.899.336-.899.784s.393.784.9.784h4.832c.506 0 .9-.336.9-.784s-.394-.784-.9-.784z" fill="#E08629"/><path d="M58.167 9.352a1.112 1.112 0 0 0-.787-.336c-1.855 0-3.428-1.456-3.484-3.304 0-.616-.506-1.064-1.124-1.064H9.947c-.618 0-1.124.448-1.124 1.064a3.43 3.43 0 0 1-3.315 3.304c-.619 0-1.068.504-1.068 1.12v23.8c0 .616.45 1.12 1.068 1.12a3.43 3.43 0 0 1 3.315 3.304c0 .616.506 1.064 1.124 1.064h27.257c.506 0 .956-.056.956-.56a.886.886 0 0 0-.9-.896H10.622c-.394-2.24-2.473-4.312-4.721-4.648V10.752c2.248-.392 4.159-2.464 4.552-4.648h41.532c.393 2.296 2.754 4.48 5.058 4.76v15.624c0 .504.393.896.899.896s.562-.504.562-1.008v-16.24c0-.28-.112-.616-.337-.784z" fill="#E08629"/><path d="M60.359 0H2.585C1.124 0 0 1.12 0 2.576v38.976c0 1.4 1.124 2.576 2.585 2.576h38.722l-1.405 2.856c-.169.392-.113.784.112 1.12.225.336.675.504 1.068.448l2.53-.392 1.404 2.352c.225.336.562.504.956.504h.056c.393 0 .787-.28.955-.616l2.473-5.152 2.473 5.152c.168.336.505.616.955.616h.056c.394 0 .73-.224.956-.504L55.3 48.16l2.529.392c.393.056.786-.112 1.067-.448.225-.336.281-.784.113-1.12l-1.349-2.856h2.754A2.574 2.574 0 0 0 63 41.552V2.576C62.944 1.12 61.82 0 60.359 0zM45.97 49.448l-1.517-2.464a.535.535 0 0 0-.562-.224l-2.698.448 2.53-5.32.562.56a2.515 2.515 0 0 0 2.191.784 1.96 1.96 0 0 1 1.349.336c.056.056.169.112.225.168l.45.28-2.53 5.432zm3.71-6.328h-.506c-.281-.056-.506-.168-.73-.28a3.17 3.17 0 0 0-2.024-.56c-.73.056-1.405-.336-1.742-1.008-.113-.224-.225-.448-.394-.616l-.056-.112c-.28-.336-.618-.56-1.011-.784-.675-.28-1.068-1.008-1.012-1.736.056-.728-.112-1.456-.562-2.016-.45-.616-.45-1.4 0-2.016a3.14 3.14 0 0 0 .562-2.016c-.056-.728.337-1.4 1.012-1.736.674-.28 1.18-.84 1.46-1.456.282-.672 1.013-1.064 1.743-1.008.73.056 1.461-.112 2.023-.56a1.69 1.69 0 0 1 2.023 0 3.17 3.17 0 0 0 2.024.56c.73-.056 1.405.336 1.742 1.008.28.672.843 1.176 1.461 1.456.674.28 1.068 1.008 1.012 1.736-.057.728.112 1.456.562 2.016.45.616.45 1.4 0 2.016a3.142 3.142 0 0 0-.562 2.016c.056.728-.338 1.4-1.012 1.736-.393.168-.73.448-1.012.784l-.056.056c-.168.224-.28.448-.393.672-.281.672-1.012 1.064-1.742 1.008-.731-.056-1.462.112-2.024.56a3.257 3.257 0 0 1-.786.28zm7.98 4.088l-2.698-.448a.535.535 0 0 0-.562.224l-1.517 2.464-2.585-5.432.45-.28c.056-.056.168-.112.224-.168.394-.28.9-.392 1.349-.336.843.056 1.63-.224 2.192-.784l.562-.56 2.585 5.32zm3.878-5.656c0 .616-.506 1.12-1.124 1.12h-3.878l-.787-1.624.337-.168c.057 0 .057-.056.113-.056 1.124-.504 1.798-1.68 1.63-2.856a1.6 1.6 0 0 1 .337-1.232c.73-1.008.73-2.352 0-3.304a1.6 1.6 0 0 1-.337-1.232c.112-1.232-.562-2.352-1.686-2.856a1.752 1.752 0 0 1-.9-.896 2.883 2.883 0 0 0-2.866-1.68c-.45.056-.899-.056-1.236-.336a2.79 2.79 0 0 0-3.316 0c-.393.28-.787.392-1.236.336-1.18-.112-2.36.56-2.867 1.68a1.752 1.752 0 0 1-.899.896c-1.124.504-1.798 1.68-1.686 2.856a1.6 1.6 0 0 1-.337 1.232c-.73 1.008-.73 2.352 0 3.304.281.392.393.784.337 1.232-.112 1.232.562 2.352 1.686 2.856 0 0 .056 0 .056.056l.338.168-.169.392-.562 1.232H2.585a1.125 1.125 0 0 1-1.124-1.12V2.576c0-.616.506-1.12 1.124-1.12h57.83c.618 0 1.124.504 1.124 1.12v38.976z" fill="#E08629"/><path d="M49.4 29.344c-3.148 0-5.733 2.576-5.733 5.712 0 3.136 2.585 5.712 5.733 5.712 3.147 0 5.732-2.576 5.732-5.712 0-3.136-2.585-5.712-5.732-5.712zm0 9.968a4.262 4.262 0 0 1-4.272-4.256A4.262 4.262 0 0 1 49.4 30.8a4.262 4.262 0 0 1 4.27 4.256 4.262 4.262 0 0 1-4.27 4.256z" fill="#E08629"/></svg>