<svg viewBox="0 0 29 28" fill="none" xmlns="http://www.w3.org/2000/svg"><path d="M28.467 13.877C28.467 6.213 22.258 0 14.6 0 6.942 0 .733 6.213.733 13.877c0 7.664 6.209 13.878 13.867 13.878 7.658 0 13.867-6.214 13.867-13.878zm-26.473 0C1.994 6.91 7.638 1.262 14.6 1.262S27.206 6.91 27.206 13.877c0 6.968-5.644 12.616-12.606 12.616S1.994 20.845 1.994 13.877z" fill="#E08524"/><path d="M15.132 21.887v-8.01h2.641l.417-2.654h-3.058V9.892c0-.693.227-1.354 1.22-1.354h1.986v-2.65h-2.819c-2.37 0-3.017 1.563-3.017 3.728v1.606h-1.626v2.655h1.626v8.01h2.63z" fill="#fff"/></svg>