<svg viewBox="0 0 28 28" fill="none" xmlns="http://www.w3.org/2000/svg"><path d="M21.78 17.75a1.135 1.135 0 0 0-.057-.11c-.287-.526-.835-1.172-1.644-1.937l-.017-.018-.009-.008-.008-.01h-.009c-.367-.356-.6-.596-.697-.718-.178-.234-.218-.47-.12-.71.068-.182.326-.564.774-1.149.235-.31.422-.558.56-.745.992-1.345 1.423-2.204 1.29-2.578l-.05-.087c-.035-.053-.124-.1-.267-.145a1.332 1.332 0 0 0-.552-.022l-2.479.018a.316.316 0 0 0-.172.004l-.112.027-.043.021-.034.027a.386.386 0 0 0-.095.092.604.604 0 0 0-.086.153c-.27.707-.577 1.365-.921 1.973-.212.362-.407.676-.585.942a4.537 4.537 0 0 1-.448.588 3.22 3.22 0 0 1-.327.302c-.098.076-.172.108-.224.097a5.794 5.794 0 0 1-.146-.035.579.579 0 0 1-.194-.215.975.975 0 0 1-.099-.342 3.848 3.848 0 0 1-.026-.776c.006-.181.009-.304.009-.368 0-.223.004-.464.013-.724l.021-.618c.006-.152.009-.313.009-.482 0-.17-.01-.302-.03-.399-.02-.096-.05-.19-.09-.28a.47.47 0 0 0-.177-.21.984.984 0 0 0-.288-.12 5.628 5.628 0 0 0-1.162-.113c-1.068-.012-1.754.058-2.058.21a1.16 1.16 0 0 0-.327.263c-.103.129-.118.199-.043.21.344.053.588.179.732.378l.051.105c.04.076.08.21.12.403.041.193.067.406.078.64.029.427.029.792 0 1.096-.028.304-.055.54-.081.71a1.439 1.439 0 0 1-.22.605.15.15 0 0 1-.043.044.634.634 0 0 1-.232.044c-.08 0-.178-.041-.293-.123a2.08 2.08 0 0 1-.357-.338 4.51 4.51 0 0 1-.418-.6 10.546 10.546 0 0 1-.482-.912l-.138-.254a22.053 22.053 0 0 1-.352-.715c-.15-.313-.282-.615-.396-.907a.577.577 0 0 0-.207-.28l-.043-.027a.9.9 0 0 0-.336-.131l-2.358.017c-.241 0-.405.055-.491.166l-.035.053a.288.288 0 0 0-.026.14c0 .065.018.144.052.237.344.824.719 1.62 1.123 2.385a27.58 27.58 0 0 0 1.055 1.85c.298.467.603.909.912 1.323.31.415.515.681.616.798.1.117.18.205.237.263l.215.21c.138.14.34.309.607.505.267.196.562.388.886.578.325.19.702.345 1.132.465.43.12.85.168 1.257.145h.99c.201-.018.353-.082.457-.193l.034-.044a.585.585 0 0 0 .064-.162.903.903 0 0 0 .03-.241 2.942 2.942 0 0 1 .056-.68c.043-.201.092-.353.147-.455a1.12 1.12 0 0 1 .331-.386.563.563 0 0 1 .069-.03c.138-.048.3-.002.486.135.187.138.362.307.526.509.163.201.36.428.59.68.229.25.43.437.602.56l.172.105c.115.07.264.135.448.193a.948.948 0 0 0 .482.044l2.203-.035c.218 0 .388-.037.508-.11.12-.073.192-.153.215-.24a.69.69 0 0 0 .005-.299c-.02-.11-.04-.188-.06-.232z" fill="#fff"/><path d="M27.233 13.877c0 7.389-5.985 13.378-13.366 13.378C6.485 27.255.5 21.265.5 13.877S6.485.5 13.867.5c7.381 0 13.366 5.989 13.366 13.377z" stroke="#E08524"/></svg>