<svg viewBox="0 0 29 28" fill="none" xmlns="http://www.w3.org/2000/svg"><path d="M29 14c0-7.732-6.492-14-14.5-14S0 6.268 0 14s6.492 14 14.5 14S29 21.732 29 14zM1.318 14C1.318 6.97 7.22 1.273 14.5 1.273S27.682 6.97 27.682 14 21.78 26.727 14.5 26.727 1.318 21.03 1.318 14z" fill="#E08524"/><path d="M18.005 5.923h-7.01c-2.68 0-4.86 2.105-4.86 4.692v6.77c0 2.587 2.18 4.692 4.86 4.692h7.01c2.68 0 4.86-2.105 4.86-4.693v-6.769c0-2.587-2.18-4.692-4.86-4.692zm3.553 11.461c0 1.892-1.594 3.43-3.553 3.43h-7.01c-1.96 0-3.553-1.538-3.553-3.43v-6.769c0-1.891 1.593-3.43 3.553-3.43h7.01c1.96 0 3.553 1.539 3.553 3.43v6.77z" fill="#fff"/><path d="M14.5 9.646c-2.487 0-4.51 1.953-4.51 4.354 0 2.4 2.023 4.354 4.51 4.354 2.486 0 4.51-1.953 4.51-4.354s-2.024-4.354-4.51-4.354zm0 7.446c-1.766 0-3.202-1.387-3.202-3.092s1.436-3.092 3.202-3.092 3.202 1.387 3.202 3.092-1.436 3.092-3.202 3.092zm4.575-6.878a.643.643 0 0 0 .654-.631.643.643 0 0 0-.654-.631.643.643 0 0 0-.654.63c0 .35.293.632.654.632z" fill="#fff"/></svg>