<svg class="faq-ico" xmlns="http://www.w3.org/2000/svg" viewBox="0 0 73 108.5"><g stroke="#E08524" stroke-miterlimit="10"><path fill="none" stroke-width="5" stroke-linejoin="round" d="M42.125 53.719c5.838-6.482 15.052-11.289 15.052-20.48 0-12.298-9.177-22.267-20.497-22.267s-20.497 9.969-20.497 22.267c0 9.191 8.424 13.448 15.052 20.48-7.595 7.282-15.052 11.066-15.052 20.075 0 12.055 9.177 21.827 20.497 21.827s20.497-9.772 20.497-21.827c0-9.01-10.261-15.415-15.052-20.075z"/><path fill="none" stroke-width="4" d="M18.654 39.511c7.342-4.39 9.384-3.025 18.824 1.349s18.824-4.636 18.824-4.636"/><path fill="#FFF" stroke-width="5" d="M65 13.5a6 6 0 0 1-6 6H14a6 6 0 0 1-6-6c0-3.314 2.686-7 6-7h45c3.314 0 6 3.686 6 7zm0 82c0 3.314-2.686 7-6 7H14c-3.314 0-6-3.686-6-7a6 6 0 0 1 6-6h45a6 6 0 0 1 6 6z"/></g></svg>