<svg xmlns="http://www.w3.org/2000/svg"><symbol id="icon_border" viewBox="0 0 61 19"><path d="M8.667 1.489L1.644 7.575a2 2 0 0 0-.086 2.944l7.09 6.913a2 2 0 0 0 1.396.568H58a2 2 0 0 0 2-2V3a2 2 0 0 0-2-2H9.977a2 2 0 0 0-1.31.489z"/></symbol><symbol id="icon_footer_facebook" viewBox="0 0 29 28"><path d="M28.467 13.877C28.467 6.213 22.258 0 14.6 0 6.942 0 .733 6.213.733 13.877c0 7.664 6.209 13.878 13.867 13.878 7.658 0 13.867-6.214 13.867-13.878zm-26.473 0C1.994 6.91 7.638 1.262 14.6 1.262S27.206 6.91 27.206 13.877c0 6.968-5.644 12.616-12.606 12.616S1.994 20.845 1.994 13.877z"/><path d="M15.132 21.887v-8.01h2.641l.417-2.654h-3.058V9.892c0-.693.227-1.354 1.22-1.354h1.986v-2.65h-2.819c-2.37 0-3.017 1.563-3.017 3.728v1.606h-1.626v2.655h1.626v8.01h2.63z"/></symbol><symbol id="icon_footer_insta" viewBox="0 0 29 28"><path d="M29 14c0-7.732-6.492-14-14.5-14S0 6.268 0 14s6.492 14 14.5 14S29 21.732 29 14zM1.318 14C1.318 6.97 7.22 1.273 14.5 1.273S27.682 6.97 27.682 14 21.78 26.727 14.5 26.727 1.318 21.03 1.318 14z"/><path d="M18.005 5.923h-7.01c-2.68 0-4.86 2.105-4.86 4.692v6.77c0 2.587 2.18 4.692 4.86 4.692h7.01c2.68 0 4.86-2.105 4.86-4.693v-6.769c0-2.587-2.18-4.692-4.86-4.692zm3.553 11.461c0 1.892-1.594 3.43-3.553 3.43h-7.01c-1.96 0-3.553-1.538-3.553-3.43v-6.769c0-1.891 1.593-3.43 3.553-3.43h7.01c1.96 0 3.553 1.539 3.553 3.43v6.77z"/><path d="M14.5 9.646c-2.487 0-4.51 1.953-4.51 4.354 0 2.4 2.023 4.354 4.51 4.354 2.486 0 4.51-1.953 4.51-4.354s-2.024-4.354-4.51-4.354zm0 7.446c-1.766 0-3.202-1.387-3.202-3.092s1.436-3.092 3.202-3.092 3.202 1.387 3.202 3.092-1.436 3.092-3.202 3.092zm4.575-6.878a.643.643 0 0 0 .654-.631.643.643 0 0 0-.654-.631.643.643 0 0 0-.654.63c0 .35.293.632.654.632z"/></symbol><symbol id="icon_footer_vk" viewBox="0 0 28 28"><path d="M21.78 17.75a1.135 1.135 0 0 0-.057-.11c-.287-.526-.835-1.172-1.644-1.937l-.017-.018-.009-.008-.008-.01h-.009c-.367-.356-.6-.596-.697-.718-.178-.234-.218-.47-.12-.71.068-.182.326-.564.774-1.149.235-.31.422-.558.56-.745.992-1.345 1.423-2.204 1.29-2.578l-.05-.087c-.035-.053-.124-.1-.267-.145a1.332 1.332 0 0 0-.552-.022l-2.479.018a.316.316 0 0 0-.172.004l-.112.027-.043.021-.034.027a.386.386 0 0 0-.095.092.604.604 0 0 0-.086.153c-.27.707-.577 1.365-.921 1.973-.212.362-.407.676-.585.942a4.537 4.537 0 0 1-.448.588 3.22 3.22 0 0 1-.327.302c-.098.076-.172.108-.224.097a5.794 5.794 0 0 1-.146-.035.579.579 0 0 1-.194-.215.975.975 0 0 1-.099-.342 3.848 3.848 0 0 1-.026-.776c.006-.181.009-.304.009-.368 0-.223.004-.464.013-.724l.021-.618c.006-.152.009-.313.009-.482 0-.17-.01-.302-.03-.399-.02-.096-.05-.19-.09-.28a.47.47 0 0 0-.177-.21.984.984 0 0 0-.288-.12 5.628 5.628 0 0 0-1.162-.113c-1.068-.012-1.754.058-2.058.21a1.16 1.16 0 0 0-.327.263c-.103.129-.118.199-.043.21.344.053.588.179.732.378l.051.105c.04.076.08.21.12.403.041.193.067.406.078.64.029.427.029.792 0 1.096-.028.304-.055.54-.081.71a1.439 1.439 0 0 1-.22.605.15.15 0 0 1-.043.044.634.634 0 0 1-.232.044c-.08 0-.178-.041-.293-.123a2.08 2.08 0 0 1-.357-.338 4.51 4.51 0 0 1-.418-.6 10.546 10.546 0 0 1-.482-.912l-.138-.254a22.053 22.053 0 0 1-.352-.715c-.15-.313-.282-.615-.396-.907a.577.577 0 0 0-.207-.28l-.043-.027a.9.9 0 0 0-.336-.131l-2.358.017c-.241 0-.405.055-.491.166l-.035.053a.288.288 0 0 0-.026.14c0 .065.018.144.052.237.344.824.719 1.62 1.123 2.385a27.58 27.58 0 0 0 1.055 1.85c.298.467.603.909.912 1.323.31.415.515.681.616.798.1.117.18.205.237.263l.215.21c.138.14.34.309.607.505.267.196.562.388.886.578.325.19.702.345 1.132.465.43.12.85.168 1.257.145h.99c.201-.018.353-.082.457-.193l.034-.044a.585.585 0 0 0 .064-.162.903.903 0 0 0 .03-.241 2.942 2.942 0 0 1 .056-.68c.043-.201.092-.353.147-.455a1.12 1.12 0 0 1 .331-.386.563.563 0 0 1 .069-.03c.138-.048.3-.002.486.135.187.138.362.307.526.509.163.201.36.428.59.68.229.25.43.437.602.56l.172.105c.115.07.264.135.448.193a.948.948 0 0 0 .482.044l2.203-.035c.218 0 .388-.037.508-.11.12-.073.192-.153.215-.24a.69.69 0 0 0 .005-.299c-.02-.11-.04-.188-.06-.232z"/><path d="M27.233 13.877c0 7.389-5.985 13.378-13.366 13.378C6.485 27.255.5 21.265.5 13.877S6.485.5 13.867.5c7.381 0 13.366 5.989 13.366 13.377z"/></symbol><symbol id="icon_logo_foot" viewBox="0 0 46 66"><path d="M22.701 0c-6.68 0-12.126 5.451-12.126 12.215s5.407 12.214 12.126 12.214c6.719 0 12.126-5.45 12.126-12.214S29.38 0 22.7 0zm0 23.753c-6.322 0-11.45-5.172-11.45-11.538C11.25 5.849 16.38.676 22.7.676c6.322 0 11.45 5.173 11.45 11.539S29.021 23.753 22.7 23.753zM28.983 7.4c-.995-2.228-2.187-3.183-2.584-3.143-.557.04-.637 1.114-.597 1.592 0 .159.04.915.2 1.512.119.438.278.875.397 1.313v.04c.08.238.199.478.278.716.636 1.99.199 4.019.199 4.098v-.08c-.12.478-.238.796-.358.996-.04.08-.04.12-.08.159-.755-3.144-2.544-5.332-2.902-5.014-.358.318-.716 3.064.12 6.406.636 2.626 1.908 4.536 2.107 4.854 0 0 4.532-3.103 4.214-8.992 0-1.99-.477-3.342-.994-4.457zm-10.099 7.202c0-.04-.04-.12-.08-.159-.119-.199-.238-.517-.357-.995v.08c-.04-.08-.478-2.11.159-4.098.08-.239.159-.478.278-.717v-.04c.159-.437.318-.875.397-1.313.16-.596.2-1.392.2-1.512.04-.477 0-1.551-.597-1.591-.358-.04-1.59.915-2.544 3.143-.517 1.154-.995 2.506-1.074 4.496-.278 5.889 4.214 8.992 4.214 8.992.239-.318 1.471-2.188 2.107-4.854.796-3.342.478-6.087.12-6.406-.279-.357-2.067 1.83-2.823 4.974z"/><path d="M30.056 11.897c-.12-1.99-.597-3.343-1.074-4.497-.994-2.228-2.187-3.183-2.584-3.143-.557.04-.636 1.114-.596 1.592 0 .159.04.915.199 1.512.12.437.278.875.397 1.313v.04c.08.238.199.478.279.716.636 1.99.198 4.019.198 4.098v-.08c-.119.478-.238.796-.357.996-.04.08-.04.12-.08.159-.755-3.144-2.544-5.332-2.902-5.014-.358.318-.716 3.064.12 6.406.635 2.626 1.907 4.536 2.106 4.854.08 0 4.612-3.064 4.294-8.952zm-11.172 2.705c0-.04-.04-.12-.08-.159-.119-.199-.238-.517-.357-.995v.08c-.04-.08-.478-2.11.159-4.098.079-.239.159-.478.278-.717v-.04c.159-.437.318-.875.397-1.313.16-.596.2-1.392.2-1.512.04-.478 0-1.551-.597-1.591-.358-.04-1.59.915-2.545 3.143-.516 1.154-.994 2.506-1.073 4.496-.279 5.889 4.214 8.992 4.214 8.992.239-.318 1.471-2.188 2.107-4.854.796-3.342.478-6.087.12-6.406-.279-.357-2.067 1.83-2.823 4.974z"/><path d="M30.056 11.896c-.12-1.989-.597-3.342-1.074-4.496-.994-2.228-2.186-3.183-2.584-3.143-.557.04-.636 1.114-.596 1.592 0 .159.04.915.199 1.512.12.437.278.875.397 1.313v.04c.08.238.2.478.279.716.636 1.99.198 4.019.198 4.098v-.08c-.119.478-.238.796-.357.995-.04.08-.04.12-.08.16-.755-3.144-2.544-5.332-2.902-5.014-.358.318-.716 3.064.12 6.406.636 2.626 1.908 4.536 2.107 4.854.079 0 4.611-3.064 4.293-8.953zm-8.27-2.307c-.358-.318-2.146 1.87-2.902 5.013 0-.04-.04-.12-.08-.159-.119-.199-.238-.517-.357-.995v.08c-.04-.08-.478-2.11.159-4.098.079-.239.159-.478.278-.717v-.04c.159-.437.318-.875.397-1.313.16-.596.2-1.392.2-1.512.04-.478 0-1.551-.597-1.591-.358-.04-1.59.915-2.545 3.143-.516 1.154-.994 2.506-1.073 4.496-.279 5.889 4.214 8.992 4.214 8.992.239-.318 1.471-2.188 2.107-4.854.915-3.382.557-6.127.2-6.445zm-.9 26.814c-.08-.8-.4-1.48-1-2.079-.599-.6-1.198-.96-1.837-1.12-.64-.16-1.119-.2-1.439-.04-.04 0-.04.04-.04.08 0 .08.2.64.64 1.6.799 1.679 1.158 3.558 1.158 5.557 0 1.8-.16 3.559-.48 5.238-.319 1.679-.718 3.118-1.198 4.278-.48 1.159-.999 2.199-1.558 3.078-.56.88-1.079 1.52-1.558 1.96-.48.44-.879.6-1.158.56-1.08-.12-1.758-2.12-2.038-5.918a41.7 41.7 0 0 0 2.996-9.596c.32-1.799.24-3.038-.16-3.758-.399-.72-1.038-.88-1.957-.52-1.08.4-1.918 1.32-2.597 2.72-.68 1.399-1.04 3.198-1.159 5.317-.16 3.199.08 5.997.76 8.396-.6 1.12-1.199 2-1.798 2.56-.6.599-1.08.839-1.519.759-.719-.12-1.278-1.36-1.718-3.718-.4-2.36-.44-5.198-.12-8.517.44-4.598.8-7.316 1.12-8.156 0-.08-.16-.12-.48-.16-.36-.04-.8 0-1.359.12-.56.12-.999.28-1.438.64-.24.2-.44.76-.56 1.72-.12.959-.239 3.078-.359 6.436-.08 1.96 0 3.838.24 5.557.239 1.72.599 3.16 1.038 4.278.44 1.12.96 2 1.519 2.64.56.64 1.118.879 1.678.839 1.118-.16 2.436-1.48 3.995-4.039.44 1.32.959 2.32 1.598 3.039.6.72 1.238 1.04 1.838 1 .758-.04 1.678-.64 2.796-1.84 1.119-1.199 2.158-2.678 3.157-4.518.999-1.839 1.797-4.038 2.397-6.677.64-2.638.839-5.197.6-7.716zM10.218 42.92c.04-1.76.24-3.199.56-4.398.32-1.2.679-1.84 1.079-2 .16-.04.28.04.4.28.239.6.239 1.6 0 2.959-.52 2.879-1.2 5.517-2.038 7.836a90.004 90.004 0 0 1 0-4.677zm14.662 6.997c.12-.76-.04-1.44-.439-2-.4-.56-.959-.88-1.638-.92-.919-.08-1.838.32-2.637 1.24-.838.88-1.358 2.12-1.518 3.679-.2 1.56.04 2.799.759 3.638.679.84 1.518 1.32 2.437 1.36 1.079.04 2.037-.48 2.876-1.64.839-1.159 1.439-2.558 1.758-4.317.04-.12 0-.2-.12-.16-.16.04-.24.12-.32.24-.399 1.678-.959 2.958-1.637 3.797-.68.84-1.359 1.2-1.998 1.12-.48-.08-.84-.56-1.079-1.44-.2-.88-.24-1.999-.08-3.318.32-2.479.76-3.758 1.239-3.758.36 0 .36.96.04 2.838-.24 1.36-.6 2.24-1.04 2.679-.16.16-.2.28-.2.36 0 .12.12.12.36.04a6.348 6.348 0 0 0 2.078-1.4c.68-.679 1.04-1.358 1.16-2.038z"/><path d="M32.352 36.403c.16-1.12.12-2.039-.04-2.679-.2-.64-.56-.92-1.04-.84-1.118.24-2.277 2.08-3.475 5.598s-1.958 7.197-2.277 11.075c-.12 1.36-.12 2.599 0 3.758.12 1.16.4 2.119.879 2.919.44.8 1.039 1.199 1.797 1.239.64.04 1.359-.56 2.158-1.8.799-1.239 1.358-2.798 1.718-4.717 0-.12 0-.16-.12-.16-.2 0-.28.08-.32.2-.32 1.44-.719 2.679-1.238 3.639-.52.96-1 1.439-1.439 1.359-.718-.12-.998-1.8-.838-4.998a65.038 65.038 0 0 0 2.716-7.877c.72-2.718 1.239-4.997 1.519-6.716zm-4.195 12.434c.239-3.118.639-6.237 1.278-9.356.64-3.118 1.198-4.757 1.718-4.917l.12.04c.2.2.24.88.16 1.999-.36 3.358-1.439 7.517-3.276 12.475v-.24z"/><path d="M30.633 56.114c.04.16.24.28.6.36.36.08.719.12 1.079.12s.52-.08.52-.2v-.28c.559-3.558 1.078-5.557 1.597-5.918.04 0 .08 0 .08.04v.24c0 .12-.04.28-.04.4 0 .16-.04.36-.12.68-.04.28-.08.56-.12.8-.12.879-.16 1.599-.12 2.198.04.6.16 1.04.28 1.4.12.32.279.56.519.72.2.16.4.24.6.24.2 0 .359 0 .559-.04.44-.16.919-.8 1.398-1.92.48-1.12.88-2.438 1.159-3.918v-.04c0-.08 0-.12-.12-.12-.16.04-.24.12-.32.2-.799 3.319-1.398 4.918-1.838 4.798-.24-.08-.32-.28-.32-.68s.04-.88.12-1.56c.08-.64.2-1.279.28-1.959.12-.64.2-1.4.36-2.199.12-.8.2-1.44.28-1.919.04-.36 0-.64-.16-.76-.16-.16-.4-.16-.72-.04-1.318.48-2.357 2.36-3.116 5.678.24-2.559.36-4.038.44-4.358.08-.68.16-1.12.2-1.28-.08.04-.32 0-.72 0-.399 0-.838.04-1.318.2-.48.16-.719.32-.759.56v.2c0 .12 0 .28-.04.44v.56c0 .4-.04 1.16-.12 2.36-.08 1.199-.12 2.279-.16 3.278 0 1.04 0 1.599.04 1.719z"/><path d="M40.661 47.078c-.04-.04-.32-.08-.719-.12-.44 0-.919.04-1.398.2-.52.12-.8.32-.8.56l-.08.68c0 .24-.04.6-.04 1.12-.12 1.959-.04 3.678.24 5.117.28 1.44.8 2.199 1.559 2.199.52 0 1.039-.72 1.557-2.2 0 .201-.08.68-.16 1.44-.08.72-.12 1.28-.16 1.64-.918.12-1.797.44-2.596.92a5.917 5.917 0 0 0-1.998 1.838c-.64.92-1.039 1.84-1.118 2.76-.08.919.08 1.598.48 2.118.399.48.958.68 1.717.48 1.918-.44 3.476-2.398 4.634-5.837 1.04.32 2.118.84 3.197 1.599.08 0 .2-.16.28-.48.279-.96.16-1.68-.4-2.2-.64-.64-1.439-1.039-2.437-1.198.52-2.16 1.079-5.758 1.638-10.875-.04-.04-.24-.08-.6-.12-.36-.04-.719.04-1.158.16-.44.12-.64.32-.64.52-.04.32-.08.56-.12.759l-.12.92v.04c0 .16-.04.32-.08.48l-.12.4c0 .12-.04.279-.08.479-.16.92-.279 1.64-.359 2.159-.08.52-.2 1.08-.32 1.64-.12.559-.24.959-.319 1.198-.08.24-.2.36-.32.36s-.16-.24-.16-.68c0-.44.04-1.119.16-1.959.08-.84.2-1.759.36-2.758.12-1 .28-2.12.48-3.359zM37.745 64.87c-.64.24-1.159.16-1.519-.2-.36-.36-.52-.92-.52-1.64.04-.719.28-1.439.76-2.118.759-1.08 2.037-1.48 3.875-1.2-.518 2.959-1.358 4.678-2.596 5.158z"/></symbol><symbol id="icon_refresh" viewBox="0 0 612.035 612.035"><path d="M323.128 56.236l5.646-9.57 40.17-40.169C271.247-13.921 165.482 13.786 89.65 89.646-16.421 195.717-28.355 360.261 53.875 479.49L10.98 522.386l137.7 19.667-19.667-137.7-34.968 34.967c-60.978-96.724-49.322-226.078 34.94-310.34 53.244-53.243 124.486-77.501 194.143-72.744zm258.264 13.743l-137.7-19.667 19.668 137.7 38.25-38.25c78.726 98.31 72.521 242.186-18.583 333.317-61.116 61.117-145.989 84.039-224.882 68.739l-45.65 45.649c105.654 33.799 226.05 8.791 309.895-75.054 112.858-112.858 119.146-291.979 18.805-412.209l40.197-40.225z"/></symbol><symbol id="icon_star" viewBox="0 0 39 37"><path fill-rule="evenodd" d="M19.5 2.501l5.603 10.056 11.395 2.166-7.933 8.382 1.44 11.394L19.5 29.623 8.995 34.499l1.439-11.394-7.932-8.382 11.395-2.166L19.5 2.501"/></symbol></svg>