<svg xmlns="http://www.w3.org/2000/svg"><symbol id="icon_border" viewBox="0 0 61 19"><path d="M8.667 1.489L1.644 7.575a2 2 0 0 0-.086 2.944l7.09 6.913a2 2 0 0 0 1.396.568H58a2 2 0 0 0 2-2V3a2 2 0 0 0-2-2H9.977a2 2 0 0 0-1.31.489z"/></symbol><symbol id="icon_burger" viewBox="0 0 32 23"><path d="M2.286 4.6h27.428A2.294 2.294 0 0 0 32 2.3C32 1.03 30.976 0 29.714 0H2.286A2.294 2.294 0 0 0 0 2.3c0 1.27 1.024 2.3 2.286 2.3zm27.428 4.6H2.286A2.294 2.294 0 0 0 0 11.5c0 1.27 1.024 2.3 2.286 2.3h27.428A2.294 2.294 0 0 0 32 11.5c0-1.27-1.024-2.3-2.286-2.3zm0 9.2H2.286A2.294 2.294 0 0 0 0 20.7C0 21.97 1.024 23 2.286 23h27.428A2.294 2.294 0 0 0 32 20.7c0-1.27-1.024-2.3-2.286-2.3z"/></symbol><symbol id="icon_footer_facebook" viewBox="0 0 29 28"><path d="M28.467 13.877C28.467 6.213 22.258 0 14.6 0 6.942 0 .733 6.213.733 13.877c0 7.664 6.209 13.878 13.867 13.878 7.658 0 13.867-6.214 13.867-13.878zm-26.473 0C1.994 6.91 7.638 1.262 14.6 1.262S27.206 6.91 27.206 13.877c0 6.968-5.644 12.616-12.606 12.616S1.994 20.845 1.994 13.877z"/><path d="M15.132 21.887v-8.01h2.641l.417-2.654h-3.058V9.892c0-.693.227-1.354 1.22-1.354h1.986v-2.65h-2.819c-2.37 0-3.017 1.563-3.017 3.728v1.606h-1.626v2.655h1.626v8.01h2.63z"/></symbol><symbol id="icon_footer_vk" viewBox="0 0 28 28"><path d="M21.78 17.75a1.135 1.135 0 0 0-.057-.11c-.287-.526-.835-1.172-1.644-1.937l-.017-.018-.009-.008-.008-.01h-.009c-.367-.356-.6-.596-.697-.718-.178-.234-.218-.47-.12-.71.068-.182.326-.564.774-1.149.235-.31.422-.558.56-.745.992-1.345 1.423-2.204 1.29-2.578l-.05-.087c-.035-.053-.124-.1-.267-.145a1.332 1.332 0 0 0-.552-.022l-2.479.018a.316.316 0 0 0-.172.004l-.112.027-.043.021-.034.027a.386.386 0 0 0-.095.092.604.604 0 0 0-.086.153c-.27.707-.577 1.365-.921 1.973-.212.362-.407.676-.585.942a4.537 4.537 0 0 1-.448.588 3.22 3.22 0 0 1-.327.302c-.098.076-.172.108-.224.097a5.794 5.794 0 0 1-.146-.035.579.579 0 0 1-.194-.215.975.975 0 0 1-.099-.342 3.848 3.848 0 0 1-.026-.776c.006-.181.009-.304.009-.368 0-.223.004-.464.013-.724l.021-.618c.006-.152.009-.313.009-.482 0-.17-.01-.302-.03-.399-.02-.096-.05-.19-.09-.28a.47.47 0 0 0-.177-.21.984.984 0 0 0-.288-.12 5.628 5.628 0 0 0-1.162-.113c-1.068-.012-1.754.058-2.058.21a1.16 1.16 0 0 0-.327.263c-.103.129-.118.199-.043.21.344.053.588.179.732.378l.051.105c.04.076.08.21.12.403.041.193.067.406.078.64.029.427.029.792 0 1.096-.028.304-.055.54-.081.71a1.439 1.439 0 0 1-.22.605.15.15 0 0 1-.043.044.634.634 0 0 1-.232.044c-.08 0-.178-.041-.293-.123a2.08 2.08 0 0 1-.357-.338 4.51 4.51 0 0 1-.418-.6 10.546 10.546 0 0 1-.482-.912l-.138-.254a22.053 22.053 0 0 1-.352-.715c-.15-.313-.282-.615-.396-.907a.577.577 0 0 0-.207-.28l-.043-.027a.9.9 0 0 0-.336-.131l-2.358.017c-.241 0-.405.055-.491.166l-.035.053a.288.288 0 0 0-.026.14c0 .065.018.144.052.237.344.824.719 1.62 1.123 2.385a27.58 27.58 0 0 0 1.055 1.85c.298.467.603.909.912 1.323.31.415.515.681.616.798.1.117.18.205.237.263l.215.21c.138.14.34.309.607.505.267.196.562.388.886.578.325.19.702.345 1.132.465.43.12.85.168 1.257.145h.99c.201-.018.353-.082.457-.193l.034-.044a.585.585 0 0 0 .064-.162.903.903 0 0 0 .03-.241 2.942 2.942 0 0 1 .056-.68c.043-.201.092-.353.147-.455a1.12 1.12 0 0 1 .331-.386.563.563 0 0 1 .069-.03c.138-.048.3-.002.486.135.187.138.362.307.526.509.163.201.36.428.59.68.229.25.43.437.602.56l.172.105c.115.07.264.135.448.193a.948.948 0 0 0 .482.044l2.203-.035c.218 0 .388-.037.508-.11.12-.073.192-.153.215-.24a.69.69 0 0 0 .005-.299c-.02-.11-.04-.188-.06-.232z"/><path d="M27.233 13.877c0 7.389-5.985 13.378-13.366 13.378C6.485 27.255.5 21.265.5 13.877S6.485.5 13.867.5c7.381 0 13.366 5.989 13.366 13.377z"/></symbol><symbol id="icon_hourglass" viewBox="0 0 73 108.5"><g stroke-miterlimit="10"><path stroke-width="5" stroke-linejoin="round" d="M42.125 53.719c5.838-6.482 15.052-11.289 15.052-20.48 0-12.298-9.177-22.267-20.497-22.267s-20.497 9.969-20.497 22.267c0 9.191 8.424 13.448 15.052 20.48-7.595 7.282-15.052 11.066-15.052 20.075 0 12.055 9.177 21.827 20.497 21.827s20.497-9.772 20.497-21.827c0-9.01-10.261-15.415-15.052-20.075z"/><path stroke-width="4" d="M18.654 39.511c7.342-4.39 9.384-3.025 18.824 1.349s18.824-4.636 18.824-4.636"/><path stroke-width="5" d="M65 13.5a6 6 0 0 1-6 6H14a6 6 0 0 1-6-6c0-3.314 2.686-7 6-7h45c3.314 0 6 3.686 6 7zm0 82c0 3.314-2.686 7-6 7H14c-3.314 0-6-3.686-6-7a6 6 0 0 1 6-6h45a6 6 0 0 1 6 6z"/></g></symbol><symbol id="icon_location" viewBox="0 0 79.167 108.5"><g stroke-width="6" stroke-miterlimit="10"><path d="M39.722 6.216c-18.261 0-33.065 14.804-33.065 33.065 0 18.261 13.033 39.138 33.065 61.758 20.032-22.62 33.065-43.497 33.065-61.758 0-18.262-14.804-33.065-33.065-33.065z"/><circle cx="39.722" cy="39.28" r="17.373"/></g></symbol><symbol id="icon_logo_foot" viewBox="0 0 46 66"><path d="M22.701 0c-6.68 0-12.126 5.451-12.126 12.215s5.407 12.214 12.126 12.214c6.719 0 12.126-5.45 12.126-12.214S29.38 0 22.7 0zm0 23.753c-6.322 0-11.45-5.172-11.45-11.538C11.25 5.849 16.38.676 22.7.676c6.322 0 11.45 5.173 11.45 11.539S29.021 23.753 22.7 23.753zM28.983 7.4c-.995-2.228-2.187-3.183-2.584-3.143-.557.04-.637 1.114-.597 1.592 0 .159.04.915.2 1.512.119.438.278.875.397 1.313v.04c.08.238.199.478.278.716.636 1.99.199 4.019.199 4.098v-.08c-.12.478-.238.796-.358.996-.04.08-.04.12-.08.159-.755-3.144-2.544-5.332-2.902-5.014-.358.318-.716 3.064.12 6.406.636 2.626 1.908 4.536 2.107 4.854 0 0 4.532-3.103 4.214-8.992 0-1.99-.477-3.342-.994-4.457zm-10.099 7.202c0-.04-.04-.12-.08-.159-.119-.199-.238-.517-.357-.995v.08c-.04-.08-.478-2.11.159-4.098.08-.239.159-.478.278-.717v-.04c.159-.437.318-.875.397-1.313.16-.596.2-1.392.2-1.512.04-.477 0-1.551-.597-1.591-.358-.04-1.59.915-2.544 3.143-.517 1.154-.995 2.506-1.074 4.496-.278 5.889 4.214 8.992 4.214 8.992.239-.318 1.471-2.188 2.107-4.854.796-3.342.478-6.087.12-6.406-.279-.357-2.067 1.83-2.823 4.974z"/><path d="M30.056 11.897c-.12-1.99-.597-3.343-1.074-4.497-.994-2.228-2.187-3.183-2.584-3.143-.557.04-.636 1.114-.596 1.592 0 .159.04.915.199 1.512.12.437.278.875.397 1.313v.04c.08.238.199.478.279.716.636 1.99.198 4.019.198 4.098v-.08c-.119.478-.238.796-.357.996-.04.08-.04.12-.08.159-.755-3.144-2.544-5.332-2.902-5.014-.358.318-.716 3.064.12 6.406.635 2.626 1.907 4.536 2.106 4.854.08 0 4.612-3.064 4.294-8.952zm-11.172 2.705c0-.04-.04-.12-.08-.159-.119-.199-.238-.517-.357-.995v.08c-.04-.08-.478-2.11.159-4.098.079-.239.159-.478.278-.717v-.04c.159-.437.318-.875.397-1.313.16-.596.2-1.392.2-1.512.04-.478 0-1.551-.597-1.591-.358-.04-1.59.915-2.545 3.143-.516 1.154-.994 2.506-1.073 4.496-.279 5.889 4.214 8.992 4.214 8.992.239-.318 1.471-2.188 2.107-4.854.796-3.342.478-6.087.12-6.406-.279-.357-2.067 1.83-2.823 4.974z"/><path d="M30.056 11.896c-.12-1.989-.597-3.342-1.074-4.496-.994-2.228-2.186-3.183-2.584-3.143-.557.04-.636 1.114-.596 1.592 0 .159.04.915.199 1.512.12.437.278.875.397 1.313v.04c.08.238.2.478.279.716.636 1.99.198 4.019.198 4.098v-.08c-.119.478-.238.796-.357.995-.04.08-.04.12-.08.16-.755-3.144-2.544-5.332-2.902-5.014-.358.318-.716 3.064.12 6.406.636 2.626 1.908 4.536 2.107 4.854.079 0 4.611-3.064 4.293-8.953zm-8.27-2.307c-.358-.318-2.146 1.87-2.902 5.013 0-.04-.04-.12-.08-.159-.119-.199-.238-.517-.357-.995v.08c-.04-.08-.478-2.11.159-4.098.079-.239.159-.478.278-.717v-.04c.159-.437.318-.875.397-1.313.16-.596.2-1.392.2-1.512.04-.478 0-1.551-.597-1.591-.358-.04-1.59.915-2.545 3.143-.516 1.154-.994 2.506-1.073 4.496-.279 5.889 4.214 8.992 4.214 8.992.239-.318 1.471-2.188 2.107-4.854.915-3.382.557-6.127.2-6.445zm-.9 26.814c-.08-.8-.4-1.48-1-2.079-.599-.6-1.198-.96-1.837-1.12-.64-.16-1.119-.2-1.439-.04-.04 0-.04.04-.04.08 0 .08.2.64.64 1.6.799 1.679 1.158 3.558 1.158 5.557 0 1.8-.16 3.559-.48 5.238-.319 1.679-.718 3.118-1.198 4.278-.48 1.159-.999 2.199-1.558 3.078-.56.88-1.079 1.52-1.558 1.96-.48.44-.879.6-1.158.56-1.08-.12-1.758-2.12-2.038-5.918a41.7 41.7 0 0 0 2.996-9.596c.32-1.799.24-3.038-.16-3.758-.399-.72-1.038-.88-1.957-.52-1.08.4-1.918 1.32-2.597 2.72-.68 1.399-1.04 3.198-1.159 5.317-.16 3.199.08 5.997.76 8.396-.6 1.12-1.199 2-1.798 2.56-.6.599-1.08.839-1.519.759-.719-.12-1.278-1.36-1.718-3.718-.4-2.36-.44-5.198-.12-8.517.44-4.598.8-7.316 1.12-8.156 0-.08-.16-.12-.48-.16-.36-.04-.8 0-1.359.12-.56.12-.999.28-1.438.64-.24.2-.44.76-.56 1.72-.12.959-.239 3.078-.359 6.436-.08 1.96 0 3.838.24 5.557.239 1.72.599 3.16 1.038 4.278.44 1.12.96 2 1.519 2.64.56.64 1.118.879 1.678.839 1.118-.16 2.436-1.48 3.995-4.039.44 1.32.959 2.32 1.598 3.039.6.72 1.238 1.04 1.838 1 .758-.04 1.678-.64 2.796-1.84 1.119-1.199 2.158-2.678 3.157-4.518.999-1.839 1.797-4.038 2.397-6.677.64-2.638.839-5.197.6-7.716zM10.218 42.92c.04-1.76.24-3.199.56-4.398.32-1.2.679-1.84 1.079-2 .16-.04.28.04.4.28.239.6.239 1.6 0 2.959-.52 2.879-1.2 5.517-2.038 7.836a90.004 90.004 0 0 1 0-4.677zm14.662 6.997c.12-.76-.04-1.44-.439-2-.4-.56-.959-.88-1.638-.92-.919-.08-1.838.32-2.637 1.24-.838.88-1.358 2.12-1.518 3.679-.2 1.56.04 2.799.759 3.638.679.84 1.518 1.32 2.437 1.36 1.079.04 2.037-.48 2.876-1.64.839-1.159 1.439-2.558 1.758-4.317.04-.12 0-.2-.12-.16-.16.04-.24.12-.32.24-.399 1.678-.959 2.958-1.637 3.797-.68.84-1.359 1.2-1.998 1.12-.48-.08-.84-.56-1.079-1.44-.2-.88-.24-1.999-.08-3.318.32-2.479.76-3.758 1.239-3.758.36 0 .36.96.04 2.838-.24 1.36-.6 2.24-1.04 2.679-.16.16-.2.28-.2.36 0 .12.12.12.36.04a6.348 6.348 0 0 0 2.078-1.4c.68-.679 1.04-1.358 1.16-2.038z"/><path d="M32.352 36.403c.16-1.12.12-2.039-.04-2.679-.2-.64-.56-.92-1.04-.84-1.118.24-2.277 2.08-3.475 5.598s-1.958 7.197-2.277 11.075c-.12 1.36-.12 2.599 0 3.758.12 1.16.4 2.119.879 2.919.44.8 1.039 1.199 1.797 1.239.64.04 1.359-.56 2.158-1.8.799-1.239 1.358-2.798 1.718-4.717 0-.12 0-.16-.12-.16-.2 0-.28.08-.32.2-.32 1.44-.719 2.679-1.238 3.639-.52.96-1 1.439-1.439 1.359-.718-.12-.998-1.8-.838-4.998a65.038 65.038 0 0 0 2.716-7.877c.72-2.718 1.239-4.997 1.519-6.716zm-4.195 12.434c.239-3.118.639-6.237 1.278-9.356.64-3.118 1.198-4.757 1.718-4.917l.12.04c.2.2.24.88.16 1.999-.36 3.358-1.439 7.517-3.276 12.475v-.24z"/><path d="M30.633 56.114c.04.16.24.28.6.36.36.08.719.12 1.079.12s.52-.08.52-.2v-.28c.559-3.558 1.078-5.557 1.597-5.918.04 0 .08 0 .08.04v.24c0 .12-.04.28-.04.4 0 .16-.04.36-.12.68-.04.28-.08.56-.12.8-.12.879-.16 1.599-.12 2.198.04.6.16 1.04.28 1.4.12.32.279.56.519.72.2.16.4.24.6.24.2 0 .359 0 .559-.04.44-.16.919-.8 1.398-1.92.48-1.12.88-2.438 1.159-3.918v-.04c0-.08 0-.12-.12-.12-.16.04-.24.12-.32.2-.799 3.319-1.398 4.918-1.838 4.798-.24-.08-.32-.28-.32-.68s.04-.88.12-1.56c.08-.64.2-1.279.28-1.959.12-.64.2-1.4.36-2.199.12-.8.2-1.44.28-1.919.04-.36 0-.64-.16-.76-.16-.16-.4-.16-.72-.04-1.318.48-2.357 2.36-3.116 5.678.24-2.559.36-4.038.44-4.358.08-.68.16-1.12.2-1.28-.08.04-.32 0-.72 0-.399 0-.838.04-1.318.2-.48.16-.719.32-.759.56v.2c0 .12 0 .28-.04.44v.56c0 .4-.04 1.16-.12 2.36-.08 1.199-.12 2.279-.16 3.278 0 1.04 0 1.599.04 1.719z"/><path d="M40.661 47.078c-.04-.04-.32-.08-.719-.12-.44 0-.919.04-1.398.2-.52.12-.8.32-.8.56l-.08.68c0 .24-.04.6-.04 1.12-.12 1.959-.04 3.678.24 5.117.28 1.44.8 2.199 1.559 2.199.52 0 1.039-.72 1.557-2.2 0 .201-.08.68-.16 1.44-.08.72-.12 1.28-.16 1.64-.918.12-1.797.44-2.596.92a5.917 5.917 0 0 0-1.998 1.838c-.64.92-1.039 1.84-1.118 2.76-.08.919.08 1.598.48 2.118.399.48.958.68 1.717.48 1.918-.44 3.476-2.398 4.634-5.837 1.04.32 2.118.84 3.197 1.599.08 0 .2-.16.28-.48.279-.96.16-1.68-.4-2.2-.64-.64-1.439-1.039-2.437-1.198.52-2.16 1.079-5.758 1.638-10.875-.04-.04-.24-.08-.6-.12-.36-.04-.719.04-1.158.16-.44.12-.64.32-.64.52-.04.32-.08.56-.12.759l-.12.92v.04c0 .16-.04.32-.08.48l-.12.4c0 .12-.04.279-.08.479-.16.92-.279 1.64-.359 2.159-.08.52-.2 1.08-.32 1.64-.12.559-.24.959-.319 1.198-.08.24-.2.36-.32.36s-.16-.24-.16-.68c0-.44.04-1.119.16-1.959.08-.84.2-1.759.36-2.758.12-1 .28-2.12.48-3.359zM37.745 64.87c-.64.24-1.159.16-1.519-.2-.36-.36-.52-.92-.52-1.64.04-.719.28-1.439.76-2.118.759-1.08 2.037-1.48 3.875-1.2-.518 2.959-1.358 4.678-2.596 5.158z"/></symbol><symbol id="icon_logo_head" viewBox="0 0 68 29"><path d="M10.626 1.237C4.773 1.237 0 6.023 0 11.96c0 5.938 4.738 10.722 10.626 10.722 5.888 0 10.626-4.784 10.626-10.722 0-5.937-4.772-10.723-10.626-10.723zm0 20.852C5.086 22.09.592 17.55.592 11.96c0-5.588 4.494-10.128 10.034-10.128 5.54 0 10.034 4.54 10.034 10.128 0 5.589-4.494 10.13-10.034 10.13zm5.505-14.355c-.871-1.956-1.916-2.794-2.265-2.76-.487.036-.557.979-.522 1.398 0 .14.035.804.174 1.327.105.385.244.769.348 1.153v.035c.07.21.175.42.244.629.558 1.746.175 3.528.175 3.597v-.07c-.105.42-.21.7-.314.874-.035.07-.035.105-.07.14-.661-2.76-2.23-4.68-2.543-4.401-.314.279-.627 2.689.105 5.623.557 2.305 1.672 3.982 1.846 4.26 0 0 3.972-2.723 3.694-7.893-.001-1.746-.42-2.934-.872-3.912zm-8.85 6.322a.265.265 0 0 0-.069-.14c-.105-.175-.209-.454-.314-.873v.07c-.035-.07-.418-1.852.14-3.598.07-.21.139-.42.244-.629v-.035c.139-.384.278-.768.348-1.152.14-.524.174-1.223.174-1.328.035-.42 0-1.362-.522-1.397-.314-.035-1.394.804-2.23 2.76-.453 1.012-.871 2.2-.941 3.946-.244 5.17 3.693 7.894 3.693 7.894.21-.28 1.29-1.921 1.847-4.261.697-2.934.418-5.344.104-5.624-.244-.314-1.812 1.607-2.473 4.367z"/><path d="M17.072 11.68c-.105-1.746-.523-2.933-.941-3.946-.871-1.956-1.916-2.795-2.265-2.76-.487.036-.557.978-.522 1.398 0 .14.035.803.174 1.327.105.384.244.768.348 1.153v.035c.07.21.175.419.244.628.558 1.747.175 3.528.175 3.598v-.07c-.105.42-.21.699-.314.873-.035.07-.035.105-.07.14-.661-2.76-2.23-4.68-2.543-4.4-.314.278-.627 2.688.105 5.622.557 2.306 1.672 3.982 1.846 4.261.07 0 4.041-2.69 3.763-7.858zm-9.79 2.376a.264.264 0 0 0-.07-.14c-.105-.175-.209-.454-.314-.873v.07c-.035-.07-.418-1.852.14-3.598.07-.21.139-.42.244-.629v-.035c.139-.384.278-.768.348-1.153.14-.523.174-1.222.174-1.327.035-.42 0-1.362-.522-1.397-.314-.035-1.394.803-2.23 2.76-.453 1.012-.871 2.2-.941 3.946-.244 5.17 3.693 7.893 3.693 7.893.21-.279 1.29-1.92 1.847-4.26.697-2.934.418-5.344.104-5.624-.244-.314-1.812 1.607-2.473 4.367z"/><path d="M17.072 11.68c-.105-1.746-.523-2.933-.941-3.946-.871-1.956-1.916-2.795-2.264-2.76-.488.036-.558.978-.523 1.398 0 .14.035.803.174 1.327.105.384.244.768.348 1.153v.035c.07.21.175.419.245.628.557 1.747.174 3.528.174 3.598v-.07c-.105.42-.21.699-.314.873-.035.07-.035.105-.07.14-.661-2.76-2.23-4.68-2.543-4.4-.313.278-.627 2.688.105 5.622.557 2.306 1.672 3.982 1.846 4.261.07 0 4.041-2.69 3.763-7.858zM9.825 9.655c-.314-.28-1.881 1.642-2.543 4.401a.265.265 0 0 0-.07-.14c-.105-.174-.209-.454-.314-.873v.07c-.035-.07-.418-1.851.14-3.598.07-.209.139-.419.244-.628v-.035c.139-.385.278-.769.348-1.153.14-.524.174-1.222.174-1.327.035-.42 0-1.362-.522-1.398-.314-.035-1.394.804-2.23 2.76-.453 1.013-.871 2.2-.941 3.947-.244 5.169 3.693 7.893 3.693 7.893.21-.28 1.29-1.921 1.847-4.26.801-2.97.488-5.38.174-5.659zM46.517 3.1c-.07-.702-.35-1.298-.876-1.825-.525-.526-1.05-.842-1.61-.982s-.98-.176-1.26-.035c-.036 0-.036.035-.036.07 0 .07.175.562.56 1.404.7 1.474 1.016 3.123 1.016 4.878 0 1.58-.14 3.124-.42 4.598-.28 1.474-.63 2.737-1.05 3.755-.42 1.018-.876 1.93-1.366 2.703-.49.772-.945 1.334-1.365 1.72-.42.386-.77.526-1.016.491-.945-.105-1.54-1.86-1.785-5.194a36.655 36.655 0 0 0 2.626-8.424c.28-1.58.21-2.667-.14-3.299-.35-.631-.91-.772-1.716-.456-.946.35-1.68 1.158-2.276 2.387-.595 1.228-.91 2.808-1.015 4.668-.14 2.808.07 5.264.665 7.37-.525.983-1.05 1.755-1.575 2.246-.526.527-.946.737-1.331.667-.63-.105-1.12-1.193-1.505-3.264-.35-2.07-.386-4.562-.106-7.476.386-4.036.7-6.422.981-7.16 0-.07-.14-.105-.42-.14-.315-.035-.7 0-1.19.105-.49.106-.876.246-1.261.562-.21.176-.385.667-.49 1.51-.105.842-.21 2.702-.315 5.65-.07 1.72 0 3.37.21 4.878.21 1.51.525 2.773.91 3.756.385.983.84 1.755 1.33 2.316.49.562.98.772 1.47.737.981-.14 2.136-1.299 3.502-3.545.385 1.158.84 2.036 1.4 2.668.526.631 1.085.912 1.61.877.666-.035 1.471-.562 2.452-1.614.98-1.053 1.89-2.352 2.766-3.967.875-1.614 1.575-3.545 2.1-5.861.561-2.317.736-4.563.526-6.774zm-9.348 5.721c.035-1.544.21-2.808.49-3.86.28-1.053.596-1.615.946-1.756.14-.035.245.035.35.246.21.526.21 1.404 0 2.597-.455 2.527-1.05 4.843-1.785 6.879a79.185 79.185 0 0 1 0-4.106zm12.848 6.142c.106-.667-.035-1.263-.385-1.755s-.84-.772-1.435-.807c-.805-.07-1.61.28-2.31 1.088-.736.772-1.191 1.86-1.331 3.229-.176 1.369.035 2.457.665 3.194.595.737 1.33 1.158 2.135 1.193.946.035 1.785-.421 2.52-1.439.736-1.017 1.261-2.246 1.541-3.79.035-.106 0-.176-.105-.14a.435.435 0 0 0-.28.21c-.35 1.474-.84 2.597-1.435 3.334-.596.737-1.19 1.053-1.751.982-.42-.07-.735-.491-.945-1.263-.175-.772-.21-1.755-.07-2.913.28-2.176.665-3.3 1.085-3.3.315 0 .315.843.035 2.492-.21 1.194-.525 1.966-.91 2.352-.14.14-.176.246-.176.316 0 .105.106.105.315.035A5.562 5.562 0 0 0 49 16.752c.598-.595.913-1.192 1.017-1.789z"/><path d="M56.564 3.1c.14-.983.106-1.79-.035-2.351-.175-.562-.49-.808-.91-.737-.98.21-1.996 1.825-3.046 4.913-1.05 3.089-1.716 6.318-1.996 9.722a17.254 17.254 0 0 0 0 3.3c.106 1.017.35 1.86.77 2.561.386.702.911 1.053 1.576 1.088.56.035 1.19-.491 1.89-1.58.7-1.087 1.191-2.456 1.506-4.14 0-.106 0-.141-.105-.141-.175 0-.245.07-.28.176-.28 1.263-.63 2.351-1.085 3.194-.455.842-.876 1.263-1.26 1.193-.63-.105-.876-1.58-.736-4.387a57.138 57.138 0 0 0 2.38-6.915C55.865 6.61 56.32 4.61 56.565 3.1zM52.89 14.016c.21-2.738.56-5.476 1.12-8.213.56-2.738 1.05-4.177 1.505-4.317l.105.035c.176.176.21.772.14 1.755-.314 2.948-1.26 6.598-2.87 10.95v-.21z"/><path d="M55.06 20.403c.034.14.21.246.524.316.316.07.63.106.946.106.315 0 .455-.07.455-.176v-.246c.49-3.123.946-4.878 1.4-5.194.036 0 .07 0 .07.035v.21c0 .106-.034.246-.034.351 0 .14-.035.316-.106.597-.035.246-.07.492-.105.702-.105.772-.14 1.404-.105 1.93.035.527.14.913.245 1.229.105.28.245.491.455.631.175.141.35.211.526.211.175 0 .314 0 .49-.035.385-.14.805-.702 1.225-1.685.42-.982.77-2.14 1.015-3.44v-.034c0-.07 0-.106-.105-.106-.14.035-.21.106-.28.176-.7 2.913-1.225 4.317-1.61 4.211-.21-.07-.28-.245-.28-.596 0-.35.035-.772.105-1.369.07-.562.175-1.123.245-1.72.105-.562.175-1.229.315-1.93.105-.702.175-1.264.245-1.685.035-.316 0-.562-.14-.667-.14-.14-.35-.14-.63-.035-1.156.421-2.066 2.07-2.731 4.984.21-2.246.315-3.545.385-3.826.07-.596.14-.982.175-1.123-.07.035-.28 0-.63 0s-.735.035-1.155.176c-.42.14-.63.28-.665.491v.176c0 .105 0 .245-.035.386v.491c0 .351-.036 1.018-.106 2.072-.07 1.052-.105 2-.14 2.878 0 .912 0 1.403.035 1.508z"/><path d="M63.847 12.472c-.035-.036-.28-.07-.63-.106a3.82 3.82 0 0 0-1.226.176c-.455.105-.7.28-.7.491l-.07.597c0 .21-.035.527-.035.983-.105 1.72-.035 3.229.21 4.492.245 1.264.7 1.93 1.365 1.93.456 0 .911-.631 1.366-1.93 0 .176-.07.596-.14 1.264-.07.631-.106 1.123-.14 1.439a5.903 5.903 0 0 0-2.276.807 5.189 5.189 0 0 0-1.75 1.614c-.561.808-.911 1.615-.98 2.422-.07.808.07 1.404.42 1.86.35.422.84.597 1.505.422 1.68-.386 3.046-2.106 4.06-5.125.911.28 1.856.737 2.802 1.404.07 0 .175-.14.245-.421.245-.843.14-1.474-.35-1.93-.56-.562-1.26-.913-2.136-1.053.455-1.896.946-5.055 1.436-9.547-.035-.035-.21-.07-.526-.105-.315-.035-.63.035-1.015.14-.385.106-.56.28-.56.457-.035.28-.07.491-.105.666l-.106.808v.035c0 .14-.035.28-.07.421l-.105.35c0 .106-.035.246-.07.422-.14.807-.245 1.439-.315 1.895-.07.457-.175.948-.28 1.44-.105.49-.21.842-.28 1.052-.07.21-.175.316-.28.316-.105 0-.14-.21-.14-.597 0-.386.035-.982.14-1.72.07-.737.175-1.544.315-2.422.106-.877.246-1.86.42-2.947zM61.29 28.09c-.56.21-1.015.14-1.33-.176-.315-.316-.456-.807-.456-1.439a3.54 3.54 0 0 1 .665-1.86c.666-.948 1.786-1.299 3.396-1.053-.454 2.597-1.19 4.106-2.275 4.528z"/></symbol><symbol id="icon_refresh" viewBox="0 0 612.035 612.035"><path d="M323.128 56.236l5.646-9.57 40.17-40.169C271.247-13.921 165.482 13.786 89.65 89.646-16.421 195.717-28.355 360.261 53.875 479.49L10.98 522.386l137.7 19.667-19.667-137.7-34.968 34.967c-60.978-96.724-49.322-226.078 34.94-310.34 53.244-53.243 124.486-77.501 194.143-72.744zm258.264 13.743l-137.7-19.667 19.668 137.7 38.25-38.25c78.726 98.31 72.521 242.186-18.583 333.317-61.116 61.117-145.989 84.039-224.882 68.739l-45.65 45.649c105.654 33.799 226.05 8.791 309.895-75.054 112.858-112.858 119.146-291.979 18.805-412.209l40.197-40.225z"/></symbol><symbol id="icon_star" viewBox="0 0 39 37"><path fill-rule="evenodd" d="M19.5 2.501l5.603 10.056 11.395 2.166-7.933 8.382 1.44 11.394L19.5 29.623 8.995 34.499l1.439-11.394-7.932-8.382 11.395-2.166L19.5 2.501"/></symbol></svg>