<svg width="68" height="29" viewBox="0 0 68 29" fill="none" xmlns="http://www.w3.org/2000/svg"><path d="M10.626 1.237C4.773 1.237 0 6.023 0 11.96c0 5.938 4.738 10.722 10.626 10.722 5.888 0 10.626-4.784 10.626-10.722 0-5.937-4.772-10.723-10.626-10.723zm0 20.852C5.086 22.09.592 17.55.592 11.96c0-5.588 4.494-10.128 10.034-10.128 5.54 0 10.034 4.54 10.034 10.128 0 5.589-4.494 10.13-10.034 10.13zm5.505-14.355c-.871-1.956-1.916-2.794-2.265-2.76-.487.036-.557.979-.522 1.398 0 .14.035.804.174 1.327.105.385.244.769.348 1.153v.035c.07.21.175.42.244.629.558 1.746.175 3.528.175 3.597v-.07c-.105.42-.21.7-.314.874-.035.07-.035.105-.07.14-.661-2.76-2.23-4.68-2.543-4.401-.314.279-.627 2.689.105 5.623.557 2.305 1.672 3.982 1.846 4.26 0 0 3.972-2.723 3.694-7.893-.001-1.746-.42-2.934-.872-3.912zm-8.85 6.322a.265.265 0 0 0-.069-.14c-.105-.175-.209-.454-.314-.873v.07c-.035-.07-.418-1.852.14-3.598.07-.21.139-.42.244-.629v-.035c.139-.384.278-.768.348-1.152.14-.524.174-1.223.174-1.328.035-.42 0-1.362-.522-1.397-.314-.035-1.394.804-2.23 2.76-.453 1.012-.871 2.2-.941 3.946-.244 5.17 3.693 7.894 3.693 7.894.21-.28 1.29-1.921 1.847-4.261.697-2.934.418-5.344.104-5.624-.244-.314-1.812 1.607-2.473 4.367z" fill="#E08524"/><path d="M17.072 11.68c-.105-1.746-.523-2.933-.941-3.946-.871-1.956-1.916-2.795-2.265-2.76-.487.036-.557.978-.522 1.398 0 .14.035.803.174 1.327.105.384.244.768.348 1.153v.035c.07.21.175.419.244.628.558 1.747.175 3.528.175 3.598v-.07c-.105.42-.21.699-.314.873-.035.07-.035.105-.07.14-.661-2.76-2.23-4.68-2.543-4.4-.314.278-.627 2.688.105 5.622.557 2.306 1.672 3.982 1.846 4.261.07 0 4.041-2.69 3.763-7.858zm-9.79 2.376a.264.264 0 0 0-.07-.14c-.105-.175-.209-.454-.314-.873v.07c-.035-.07-.418-1.852.14-3.598.07-.21.139-.42.244-.629v-.035c.139-.384.278-.768.348-1.153.14-.523.174-1.222.174-1.327.035-.42 0-1.362-.522-1.397-.314-.035-1.394.803-2.23 2.76-.453 1.012-.871 2.2-.941 3.946-.244 5.17 3.693 7.893 3.693 7.893.21-.279 1.29-1.92 1.847-4.26.697-2.934.418-5.344.104-5.624-.244-.314-1.812 1.607-2.473 4.367z" fill="#E08524"/><path d="M17.072 11.68c-.105-1.746-.523-2.933-.941-3.946-.871-1.956-1.916-2.795-2.264-2.76-.488.036-.558.978-.523 1.398 0 .14.035.803.174 1.327.105.384.244.768.348 1.153v.035c.07.21.175.419.245.628.557 1.747.174 3.528.174 3.598v-.07c-.105.42-.21.699-.314.873-.035.07-.035.105-.07.14-.661-2.76-2.23-4.68-2.543-4.4-.313.278-.627 2.688.105 5.622.557 2.306 1.672 3.982 1.846 4.261.07 0 4.041-2.69 3.763-7.858zM9.825 9.655c-.314-.28-1.881 1.642-2.543 4.401a.265.265 0 0 0-.07-.14c-.105-.174-.209-.454-.314-.873v.07c-.035-.07-.418-1.851.14-3.598.07-.209.139-.419.244-.628v-.035c.139-.385.278-.769.348-1.153.14-.524.174-1.222.174-1.327.035-.42 0-1.362-.522-1.398-.314-.035-1.394.804-2.23 2.76-.453 1.013-.871 2.2-.941 3.947-.244 5.169 3.693 7.893 3.693 7.893.21-.28 1.29-1.921 1.847-4.26.801-2.97.488-5.38.174-5.659zM46.517 3.1c-.07-.702-.35-1.298-.876-1.825-.525-.526-1.05-.842-1.61-.982s-.98-.176-1.26-.035c-.036 0-.036.035-.036.07 0 .07.175.562.56 1.404.7 1.474 1.016 3.123 1.016 4.878 0 1.58-.14 3.124-.42 4.598-.28 1.474-.63 2.737-1.05 3.755-.42 1.018-.876 1.93-1.366 2.703-.49.772-.945 1.334-1.365 1.72-.42.386-.77.526-1.016.491-.945-.105-1.54-1.86-1.785-5.194a36.655 36.655 0 0 0 2.626-8.424c.28-1.58.21-2.667-.14-3.299-.35-.631-.91-.772-1.716-.456-.946.35-1.68 1.158-2.276 2.387-.595 1.228-.91 2.808-1.015 4.668-.14 2.808.07 5.264.665 7.37-.525.983-1.05 1.755-1.575 2.246-.526.527-.946.737-1.331.667-.63-.105-1.12-1.193-1.505-3.264-.35-2.07-.386-4.562-.106-7.476.386-4.036.7-6.422.981-7.16 0-.07-.14-.105-.42-.14-.315-.035-.7 0-1.19.105-.49.106-.876.246-1.261.562-.21.176-.385.667-.49 1.51-.105.842-.21 2.702-.315 5.65-.07 1.72 0 3.37.21 4.878.21 1.51.525 2.773.91 3.756.385.983.84 1.755 1.33 2.316.49.562.98.772 1.47.737.981-.14 2.136-1.299 3.502-3.545.385 1.158.84 2.036 1.4 2.668.526.631 1.085.912 1.61.877.666-.035 1.471-.562 2.452-1.614.98-1.053 1.89-2.352 2.766-3.967.875-1.614 1.575-3.545 2.1-5.861.561-2.317.736-4.563.526-6.774zm-9.348 5.721c.035-1.544.21-2.808.49-3.86.28-1.053.596-1.615.946-1.756.14-.035.245.035.35.246.21.526.21 1.404 0 2.597-.455 2.527-1.05 4.843-1.785 6.879a79.185 79.185 0 0 1 0-4.106zm12.848 6.142c.106-.667-.035-1.263-.385-1.755s-.84-.772-1.435-.807c-.805-.07-1.61.28-2.31 1.088-.736.772-1.191 1.86-1.331 3.229-.176 1.369.035 2.457.665 3.194.595.737 1.33 1.158 2.135 1.193.946.035 1.785-.421 2.52-1.439.736-1.017 1.261-2.246 1.541-3.79.035-.106 0-.176-.105-.14a.435.435 0 0 0-.28.21c-.35 1.474-.84 2.597-1.435 3.334-.596.737-1.19 1.053-1.751.982-.42-.07-.735-.491-.945-1.263-.175-.772-.21-1.755-.07-2.913.28-2.176.665-3.3 1.085-3.3.315 0 .315.843.035 2.492-.21 1.194-.525 1.966-.91 2.352-.14.14-.176.246-.176.316 0 .105.106.105.315.035A5.562 5.562 0 0 0 49 16.752c.598-.595.913-1.192 1.017-1.789z" fill="#E08524"/><path d="M56.564 3.1c.14-.983.106-1.79-.035-2.351-.175-.562-.49-.808-.91-.737-.98.21-1.996 1.825-3.046 4.913-1.05 3.089-1.716 6.318-1.996 9.722a17.254 17.254 0 0 0 0 3.3c.106 1.017.35 1.86.77 2.561.386.702.911 1.053 1.576 1.088.56.035 1.19-.491 1.89-1.58.7-1.087 1.191-2.456 1.506-4.14 0-.106 0-.141-.105-.141-.175 0-.245.07-.28.176-.28 1.263-.63 2.351-1.085 3.194-.455.842-.876 1.263-1.26 1.193-.63-.105-.876-1.58-.736-4.387a57.138 57.138 0 0 0 2.38-6.915C55.865 6.61 56.32 4.61 56.565 3.1zM52.89 14.016c.21-2.738.56-5.476 1.12-8.213.56-2.738 1.05-4.177 1.505-4.317l.105.035c.176.176.21.772.14 1.755-.314 2.948-1.26 6.598-2.87 10.95v-.21z" fill="#E08524"/><path d="M55.06 20.403c.034.14.21.246.524.316.316.07.63.106.946.106.315 0 .455-.07.455-.176v-.246c.49-3.123.946-4.878 1.4-5.194.036 0 .07 0 .07.035v.21c0 .106-.034.246-.034.351 0 .14-.035.316-.106.597-.035.246-.07.492-.105.702-.105.772-.14 1.404-.105 1.93.035.527.14.913.245 1.229.105.28.245.491.455.631.175.141.35.211.526.211.175 0 .314 0 .49-.035.385-.14.805-.702 1.225-1.685.42-.982.77-2.14 1.015-3.44v-.034c0-.07 0-.106-.105-.106-.14.035-.21.106-.28.176-.7 2.913-1.225 4.317-1.61 4.211-.21-.07-.28-.245-.28-.596 0-.35.035-.772.105-1.369.07-.562.175-1.123.245-1.72.105-.562.175-1.229.315-1.93.105-.702.175-1.264.245-1.685.035-.316 0-.562-.14-.667-.14-.14-.35-.14-.63-.035-1.156.421-2.066 2.07-2.731 4.984.21-2.246.315-3.545.385-3.826.07-.596.14-.982.175-1.123-.07.035-.28 0-.63 0s-.735.035-1.155.176c-.42.14-.63.28-.665.491v.176c0 .105 0 .245-.035.386v.491c0 .351-.036 1.018-.106 2.072-.07 1.052-.105 2-.14 2.878 0 .912 0 1.403.035 1.508z" fill="#E08524"/><path d="M63.847 12.472c-.035-.036-.28-.07-.63-.106a3.82 3.82 0 0 0-1.226.176c-.455.105-.7.28-.7.491l-.07.597c0 .21-.035.527-.035.983-.105 1.72-.035 3.229.21 4.492.245 1.264.7 1.93 1.365 1.93.456 0 .911-.631 1.366-1.93 0 .176-.07.596-.14 1.264-.07.631-.106 1.123-.14 1.439a5.903 5.903 0 0 0-2.276.807 5.189 5.189 0 0 0-1.75 1.614c-.561.808-.911 1.615-.98 2.422-.07.808.07 1.404.42 1.86.35.422.84.597 1.505.422 1.68-.386 3.046-2.106 4.06-5.125.911.28 1.856.737 2.802 1.404.07 0 .175-.14.245-.421.245-.843.14-1.474-.35-1.93-.56-.562-1.26-.913-2.136-1.053.455-1.896.946-5.055 1.436-9.547-.035-.035-.21-.07-.526-.105-.315-.035-.63.035-1.015.14-.385.106-.56.28-.56.457-.035.28-.07.491-.105.666l-.106.808v.035c0 .14-.035.28-.07.421l-.105.35c0 .106-.035.246-.07.422-.14.807-.245 1.439-.315 1.895-.07.457-.175.948-.28 1.44-.105.49-.21.842-.28 1.052-.07.21-.175.316-.28.316-.105 0-.14-.21-.14-.597 0-.386.035-.982.14-1.72.07-.737.175-1.544.315-2.422.106-.877.246-1.86.42-2.947zM61.29 28.09c-.56.21-1.015.14-1.33-.176-.315-.316-.456-.807-.456-1.439a3.54 3.54 0 0 1 .665-1.86c.666-.948 1.786-1.299 3.396-1.053-.454 2.597-1.19 4.106-2.275 4.528z" fill="#E08524"/></svg>