<svg viewBox="0 0 46 66" fill="none" xmlns="http://www.w3.org/2000/svg"><path d="M22.701 0c-6.68 0-12.126 5.451-12.126 12.215s5.407 12.214 12.126 12.214c6.719 0 12.126-5.45 12.126-12.214S29.38 0 22.7 0zm0 23.753c-6.322 0-11.45-5.172-11.45-11.538C11.25 5.849 16.38.676 22.7.676c6.322 0 11.45 5.173 11.45 11.539S29.021 23.753 22.7 23.753zM28.983 7.4c-.995-2.228-2.187-3.183-2.584-3.143-.557.04-.637 1.114-.597 1.592 0 .159.04.915.2 1.512.119.438.278.875.397 1.313v.04c.08.238.199.478.278.716.636 1.99.199 4.019.199 4.098v-.08c-.12.478-.238.796-.358.996-.04.08-.04.12-.08.159-.755-3.144-2.544-5.332-2.902-5.014-.358.318-.716 3.064.12 6.406.636 2.626 1.908 4.536 2.107 4.854 0 0 4.532-3.103 4.214-8.992 0-1.99-.477-3.342-.994-4.457zm-10.099 7.202c0-.04-.04-.12-.08-.159-.119-.199-.238-.517-.357-.995v.08c-.04-.08-.478-2.11.159-4.098.08-.239.159-.478.278-.717v-.04c.159-.437.318-.875.397-1.313.16-.596.2-1.392.2-1.512.04-.477 0-1.551-.597-1.591-.358-.04-1.59.915-2.544 3.143-.517 1.154-.995 2.506-1.074 4.496-.278 5.889 4.214 8.992 4.214 8.992.239-.318 1.471-2.188 2.107-4.854.796-3.342.478-6.087.12-6.406-.279-.357-2.067 1.83-2.823 4.974z" fill="#fff"/><path d="M30.056 11.897c-.12-1.99-.597-3.343-1.074-4.497-.994-2.228-2.187-3.183-2.584-3.143-.557.04-.636 1.114-.596 1.592 0 .159.04.915.199 1.512.12.437.278.875.397 1.313v.04c.08.238.199.478.279.716.636 1.99.198 4.019.198 4.098v-.08c-.119.478-.238.796-.357.996-.04.08-.04.12-.08.159-.755-3.144-2.544-5.332-2.902-5.014-.358.318-.716 3.064.12 6.406.635 2.626 1.907 4.536 2.106 4.854.08 0 4.612-3.064 4.294-8.952zm-11.172 2.705c0-.04-.04-.12-.08-.159-.119-.199-.238-.517-.357-.995v.08c-.04-.08-.478-2.11.159-4.098.079-.239.159-.478.278-.717v-.04c.159-.437.318-.875.397-1.313.16-.596.2-1.392.2-1.512.04-.478 0-1.551-.597-1.591-.358-.04-1.59.915-2.545 3.143-.516 1.154-.994 2.506-1.073 4.496-.279 5.889 4.214 8.992 4.214 8.992.239-.318 1.471-2.188 2.107-4.854.796-3.342.478-6.087.12-6.406-.279-.357-2.067 1.83-2.823 4.974z" fill="#fff"/><path d="M30.056 11.896c-.12-1.989-.597-3.342-1.074-4.496-.994-2.228-2.186-3.183-2.584-3.143-.557.04-.636 1.114-.596 1.592 0 .159.04.915.199 1.512.12.437.278.875.397 1.313v.04c.08.238.2.478.279.716.636 1.99.198 4.019.198 4.098v-.08c-.119.478-.238.796-.357.995-.04.08-.04.12-.08.16-.755-3.144-2.544-5.332-2.902-5.014-.358.318-.716 3.064.12 6.406.636 2.626 1.908 4.536 2.107 4.854.079 0 4.611-3.064 4.293-8.953zm-8.27-2.307c-.358-.318-2.146 1.87-2.902 5.013 0-.04-.04-.12-.08-.159-.119-.199-.238-.517-.357-.995v.08c-.04-.08-.478-2.11.159-4.098.079-.239.159-.478.278-.717v-.04c.159-.437.318-.875.397-1.313.16-.596.2-1.392.2-1.512.04-.478 0-1.551-.597-1.591-.358-.04-1.59.915-2.545 3.143-.516 1.154-.994 2.506-1.073 4.496-.279 5.889 4.214 8.992 4.214 8.992.239-.318 1.471-2.188 2.107-4.854.915-3.382.557-6.127.2-6.445zm-.9 26.814c-.08-.8-.4-1.48-1-2.079-.599-.6-1.198-.96-1.837-1.12-.64-.16-1.119-.2-1.439-.04-.04 0-.04.04-.04.08 0 .08.2.64.64 1.6.799 1.679 1.158 3.558 1.158 5.557 0 1.8-.16 3.559-.48 5.238-.319 1.679-.718 3.118-1.198 4.278-.48 1.159-.999 2.199-1.558 3.078-.56.88-1.079 1.52-1.558 1.96-.48.44-.879.6-1.158.56-1.08-.12-1.758-2.12-2.038-5.918a41.7 41.7 0 0 0 2.996-9.596c.32-1.799.24-3.038-.16-3.758-.399-.72-1.038-.88-1.957-.52-1.08.4-1.918 1.32-2.597 2.72-.68 1.399-1.04 3.198-1.159 5.317-.16 3.199.08 5.997.76 8.396-.6 1.12-1.199 2-1.798 2.56-.6.599-1.08.839-1.519.759-.719-.12-1.278-1.36-1.718-3.718-.4-2.36-.44-5.198-.12-8.517.44-4.598.8-7.316 1.12-8.156 0-.08-.16-.12-.48-.16-.36-.04-.8 0-1.359.12-.56.12-.999.28-1.438.64-.24.2-.44.76-.56 1.72-.12.959-.239 3.078-.359 6.436-.08 1.96 0 3.838.24 5.557.239 1.72.599 3.16 1.038 4.278.44 1.12.96 2 1.519 2.64.56.64 1.118.879 1.678.839 1.118-.16 2.436-1.48 3.995-4.039.44 1.32.959 2.32 1.598 3.039.6.72 1.238 1.04 1.838 1 .758-.04 1.678-.64 2.796-1.84 1.119-1.199 2.158-2.678 3.157-4.518.999-1.839 1.797-4.038 2.397-6.677.64-2.638.839-5.197.6-7.716zM10.218 42.92c.04-1.76.24-3.199.56-4.398.32-1.2.679-1.84 1.079-2 .16-.04.28.04.4.28.239.6.239 1.6 0 2.959-.52 2.879-1.2 5.517-2.038 7.836a90.004 90.004 0 0 1 0-4.677zm14.662 6.997c.12-.76-.04-1.44-.439-2-.4-.56-.959-.88-1.638-.92-.919-.08-1.838.32-2.637 1.24-.838.88-1.358 2.12-1.518 3.679-.2 1.56.04 2.799.759 3.638.679.84 1.518 1.32 2.437 1.36 1.079.04 2.037-.48 2.876-1.64.839-1.159 1.439-2.558 1.758-4.317.04-.12 0-.2-.12-.16-.16.04-.24.12-.32.24-.399 1.678-.959 2.958-1.637 3.797-.68.84-1.359 1.2-1.998 1.12-.48-.08-.84-.56-1.079-1.44-.2-.88-.24-1.999-.08-3.318.32-2.479.76-3.758 1.239-3.758.36 0 .36.96.04 2.838-.24 1.36-.6 2.24-1.04 2.679-.16.16-.2.28-.2.36 0 .12.12.12.36.04a6.348 6.348 0 0 0 2.078-1.4c.68-.679 1.04-1.358 1.16-2.038z" fill="#fff"/><path d="M32.352 36.403c.16-1.12.12-2.039-.04-2.679-.2-.64-.56-.92-1.04-.84-1.118.24-2.277 2.08-3.475 5.598s-1.958 7.197-2.277 11.075c-.12 1.36-.12 2.599 0 3.758.12 1.16.4 2.119.879 2.919.44.8 1.039 1.199 1.797 1.239.64.04 1.359-.56 2.158-1.8.799-1.239 1.358-2.798 1.718-4.717 0-.12 0-.16-.12-.16-.2 0-.28.08-.32.2-.32 1.44-.719 2.679-1.238 3.639-.52.96-1 1.439-1.439 1.359-.718-.12-.998-1.8-.838-4.998a65.038 65.038 0 0 0 2.716-7.877c.72-2.718 1.239-4.997 1.519-6.716zm-4.195 12.434c.239-3.118.639-6.237 1.278-9.356.64-3.118 1.198-4.757 1.718-4.917l.12.04c.2.2.24.88.16 1.999-.36 3.358-1.439 7.517-3.276 12.475v-.24z" fill="#fff"/><path d="M30.633 56.114c.04.16.24.28.6.36.36.08.719.12 1.079.12s.52-.08.52-.2v-.28c.559-3.558 1.078-5.557 1.597-5.918.04 0 .08 0 .08.04v.24c0 .12-.04.28-.04.4 0 .16-.04.36-.12.68-.04.28-.08.56-.12.8-.12.879-.16 1.599-.12 2.198.04.6.16 1.04.28 1.4.12.32.279.56.519.72.2.16.4.24.6.24.2 0 .359 0 .559-.04.44-.16.919-.8 1.398-1.92.48-1.12.88-2.438 1.159-3.918v-.04c0-.08 0-.12-.12-.12-.16.04-.24.12-.32.2-.799 3.319-1.398 4.918-1.838 4.798-.24-.08-.32-.28-.32-.68s.04-.88.12-1.56c.08-.64.2-1.279.28-1.959.12-.64.2-1.4.36-2.199.12-.8.2-1.44.28-1.919.04-.36 0-.64-.16-.76-.16-.16-.4-.16-.72-.04-1.318.48-2.357 2.36-3.116 5.678.24-2.559.36-4.038.44-4.358.08-.68.16-1.12.2-1.28-.08.04-.32 0-.72 0-.399 0-.838.04-1.318.2-.48.16-.719.32-.759.56v.2c0 .12 0 .28-.04.44v.56c0 .4-.04 1.16-.12 2.36-.08 1.199-.12 2.279-.16 3.278 0 1.04 0 1.599.04 1.719z" fill="#fff"/><path d="M40.661 47.078c-.04-.04-.32-.08-.719-.12-.44 0-.919.04-1.398.2-.52.12-.8.32-.8.56l-.08.68c0 .24-.04.6-.04 1.12-.12 1.959-.04 3.678.24 5.117.28 1.44.8 2.199 1.559 2.199.52 0 1.039-.72 1.557-2.2 0 .201-.08.68-.16 1.44-.08.72-.12 1.28-.16 1.64-.918.12-1.797.44-2.596.92a5.917 5.917 0 0 0-1.998 1.838c-.64.92-1.039 1.84-1.118 2.76-.08.919.08 1.598.48 2.118.399.48.958.68 1.717.48 1.918-.44 3.476-2.398 4.634-5.837 1.04.32 2.118.84 3.197 1.599.08 0 .2-.16.28-.48.279-.96.16-1.68-.4-2.2-.64-.64-1.439-1.039-2.437-1.198.52-2.16 1.079-5.758 1.638-10.875-.04-.04-.24-.08-.6-.12-.36-.04-.719.04-1.158.16-.44.12-.64.32-.64.52-.04.32-.08.56-.12.759l-.12.92v.04c0 .16-.04.32-.08.48l-.12.4c0 .12-.04.279-.08.479-.16.92-.279 1.64-.359 2.159-.08.52-.2 1.08-.32 1.64-.12.559-.24.959-.319 1.198-.08.24-.2.36-.32.36s-.16-.24-.16-.68c0-.44.04-1.119.16-1.959.08-.84.2-1.759.36-2.758.12-1 .28-2.12.48-3.359zM37.745 64.87c-.64.24-1.159.16-1.519-.2-.36-.36-.52-.92-.52-1.64.04-.719.28-1.439.76-2.118.759-1.08 2.037-1.48 3.875-1.2-.518 2.959-1.358 4.678-2.596 5.158z" fill="#fff"/></svg>