<svg width="61" height="56" viewBox="0 0 61 56" fill="none" xmlns="http://www.w3.org/2000/svg"><path d="M60.126 45.804l-1.423.105c2.793-2.747 2.898-7.237.158-10.037-.421-.423-1.317-1.11-1.844-1.427 2.16-1.268 3.794-3.17 3.794-5.705 0-3.91-3.162-6.868-7.114-6.868h-8.8v-7.608c0-.581-.474-1.004-1.001-1.004h-.158L31.67 15.11v-.951c2.371-.476 4.058-2.59 4.058-4.967 0-4.437-4.216-8.664-4.374-8.875-.421-.423-1.054-.423-1.423 0-.158.158-4.373 4.438-4.373 8.875a5.037 5.037 0 0 0 4.057 4.966v1.268l-12.383 1.902c-.475.053-.844.529-.844 1.004v11.359a11.999 11.999 0 0 0-2.529-2.06 1.113 1.113 0 0 0-1.001 0c-3.004 1.743-5.059 4.807-5.48 8.24-.686-.158-1.423-.21-2.161-.21-.474 0-.896.052-1.37.105-.37.053-.685.264-.79.634C1 41.26 2.95 47.283 7.271 50.347L0 50.242v1.32h2.424l1.739 3.857c.158.37.527.581.896.581H43.79c.58 0 1.002-.475 1.002-1.004v-3.064h6.481l1.739 3.487c.158.37.527.581.896.581h4.057c.58 0 1.002-.475 1.002-1.004v-3.064h1c.58 0 1.002-.475 1.002-1.004V46.86c.158-.58-.316-1.056-.843-1.056zm-.632-5.072c0 3.011-2.477 5.494-5.48 5.494h-18.34c-3.004 0-5.48-2.483-5.48-5.494 0-3.011 2.476-5.494 5.48-5.494h13.227a3.423 3.423 0 0 1 3.425 3.434 3.423 3.423 0 0 1-3.425 3.434h-10.17a1.419 1.419 0 0 1-1.423-1.427c0-.792.632-1.426 1.422-1.426h6.745v-1.268H38.73c-1.475 0-2.634 1.215-2.634 2.641 0 1.427 1.212 2.642 2.634 2.642H48.9c2.583 0 4.69-2.113 4.69-4.702 0-1.004-.368-2.008-.948-2.8l-.474-.528h1.844c3.004 0 5.48 2.483 5.48 5.494zm-8.537-17.698a3.423 3.423 0 0 1 3.425 3.434 3.423 3.423 0 0 1-3.425 3.434H40.734a1.42 1.42 0 0 1-1.423-1.427 1.42 1.42 0 0 1 1.423-1.426h6.745v-1.268h-6.745c-1.476 0-2.635 1.215-2.635 2.642a2.646 2.646 0 0 0 2.635 2.641h10.17c2.582 0 4.69-2.113 4.69-4.702 0-.95-.316-1.902-.843-2.694l-.632-.845 1 .211a5.364 5.364 0 0 1 3.426 2.43 5.158 5.158 0 0 1 .685 4.12c-.58 2.484-2.74 4.28-5.322 4.28H39.733c-3.004.106-5.48-2.324-5.48-5.336 0-3.011 2.476-5.494 5.48-5.494h11.224zM29.404 12.415c-1.37-.475-2.318-1.796-2.318-3.223 0-2.694 1.95-5.494 3.161-6.867l.317-.37.316.37c1.16 1.426 3.162 4.173 3.162 6.867 0 1.48-.949 2.748-2.32 3.223l-.526.211v-2.06h-1.265v2.008l-.527-.159zM8.326 36.242c.105-.687.263-1.533.632-2.43 1.107-2.853 3.267-4.438 4.321-5.125.738.475 2.108 1.426 3.162 3.17 1.107 1.796 1.423 3.486 1.476 4.385l.052.317-.263.105c-.79.317-1.581.74-2.266 1.215a9.842 9.842 0 0 0-1.792 1.532l-.263.317-.264-.317c-.527-.475-1.106-1.004-1.791-1.532-1.212-.74-2.16-1.268-3.004-1.637zm9.907 1.373c1.58-.581 3.109-.528 3.162-.528.316 0 .527.053.685.053l.263.053.105.264c.58 1.69.686 3.486.317 5.124-.843 4.068-4.11 6.34-5.902 7.08-1.687.686-3.426.686-3.584.686h-.79l-.106-.264c-.526-1.585-.684-3.17-.421-4.702.738-4.755 4.795-7.238 6.27-7.766zM4.426 45.434c-1.475-2.589-1.212-5.177-1.159-5.97.158-1.056.422-1.955.632-2.588.79-.106 2.056-.106 3.478.264 1.107.317 1.845.74 2.372 1.003.79.423 1.897 1.163 3.056 2.378-.21.37-.527.845-.843 1.426 0 0-.369.687-.58 1.268-.896 2.483-.632 4.755-.316 6.234l.158.634-.632-.158c-.632-.106-4.216-1.004-6.166-4.491zm16.81 9.087H5.111l-1.37-3.012h18.866l-1.37 3.012zm9.697-.159h-8.537l1.422-2.853h2.266v-1.267h-7.693l1.054-.74c4.163-2.906 5.744-8.4 3.741-13.05-.105-.21-.263-.369-.474-.369-1.107-.158-2.266-.106-3.373.106l-.421.105-.053-.37c-.105-.528-.21-1.109-.369-1.69-.158-.687-.369-1.374-.527-2.008V18.86l25.242-3.856v6.815h-3.426a6.645 6.645 0 0 0-4.742 1.955c-1.265 1.267-1.95 2.958-2.003 4.754 0 1.85.738 3.593 2.108 4.86l.633.582-.844.105a6.592 6.592 0 0 0-4.479 2.536c-1.106 1.427-1.633 3.17-1.423 4.966.159 1.532.896 2.959 2.003 4.016l.685.686h-2.108a.61.61 0 0 0-.632.634v4.49c0 .318.263.635.632.635h1.423v2.324h-.105zm1.264-.053v-2.377h5.428l-1.16 2.377h-4.268zm11.435 0h-6.165l1.16-2.377h5.005v2.377zm14.07.37h-3.267l-1.37-2.747h4.637v2.747zm2.055-3.91H30.142V47.6h29.615v3.17z" fill="#E08629"/><path d="M21.763 21.396h-1.37v8.136h1.37v-8.136zm0 10.144h-1.37v2.06h1.37v-2.06z" fill="#E08629"/></svg>