<svg width="60" height="54" viewBox="0 0 60 54" fill="none" xmlns="http://www.w3.org/2000/svg"><path d="M57.111 26.23V4.796C57.111 2.132 54.885 0 52.116 0H8.004C5.236 0 3.009 2.132 3.009 4.796v14.447C1.324 19.243 0 20.546 0 22.145v28.894c0 1.6 1.324 2.902 3.009 2.902h22.086c1.685 0 3.01-1.303 3.01-2.902h8.425c.962 0 1.805-.414 2.407-1.125a2.7 2.7 0 0 0 .541-2.486l-1.986-7.52h5.718v11.19c0 1.6 1.324 2.902 3.009 2.902h11.013C58.917 54 60 52.757 60 51.158V29.25c-.12-1.717-1.204-3.02-2.889-3.02zM26.66 51.04c0 .828-.722 1.539-1.625 1.539H2.95c-.903 0-1.625-.71-1.625-1.54v-2.546H26.6v2.546h.06zm0-3.257H1.384V25.4H26.66v22.382zm0-23.151H1.384v-2.547c0-.828.722-1.539 1.625-1.539h22.086c.903 0 1.625.71 1.625 1.54v2.546h-.06zm11.314 23.092c.12.473.06.947-.301 1.362-.3.355-.782.592-1.264.592h-8.425v-3.139h9.629l.36 1.185zm-.481-1.895h-9.449v-5.98h7.703l1.745 5.98zm5.596-7.342H28.044v-6.04H43.09v6.04zm0-7.402H28.044v-9.532c0-1.244-1.083-2.31-2.407-2.31H4.393V4.796c0-1.895 1.625-3.493 3.611-3.493h44.112c1.986 0 3.611 1.54 3.611 3.493V26.23h-9.93c-1.504 0-2.708 1.184-2.708 2.665v2.19zm15.527 20.25c0 .83-.722 1.54-1.625 1.54H45.978c-.903 0-1.625-.71-1.625-1.54V48.79h14.263v2.547zm0-3.256H44.353V32.447h14.263V48.08zm0-16.401H44.353v-2.546c0-.83.722-1.54 1.625-1.54H56.99c.903 0 1.625.71 1.625 1.54v2.546z" fill="#E08629"/><path d="M43.45 10.303l-6.018 5.802.903.888 6.018-5.802-.903-.888zm-7.462 7.46l-3.972 3.849.843.829 4.032-3.849-.903-.829zm6.139-10.776l-6.019 5.803.903.888 6.018-5.803-.903-.888zm12.878 30.967l-6.018 5.803.903.888 6.018-5.803-.903-.888zm-1.324-3.316l-6.018 5.803.903.888 6.018-5.803-.903-.888zM34.724 14.447l-4.032 3.849.843.829 4.032-3.849-.843-.829zm-13.962 18l-6.018 5.803.903.888 6.018-5.802-.903-.889zm-7.402 7.461l-4.032 3.849.842.828 4.033-3.848-.843-.83zm6.078-10.776L7.703 40.44l.903.888L20.4 30.019l-.963-.887zM8.425 2.605H6.981v1.362h1.444V2.605zm2.889 0H9.87v1.362h1.444V2.605zm2.889 0h-1.445v1.362h1.445V2.605z" fill="#E08629"/></svg>