<svg width="21" height="21" viewBox="0 0 21 21" fill="none" xmlns="http://www.w3.org/2000/svg"><path d="M21 10.5C21 4.71 16.29 0 10.5 0S0 4.71 0 10.5c0 3.058 1.315 5.814 3.408 7.735l-.01.009.34.287.07.052a10.56 10.56 0 0 0 .745.563c.204.14.413.274.627.4l.14.081c.235.134.474.26.718.375l.055.024c.797.37 1.649.643 2.54.804l.07.012c.276.048.555.086.838.112l.104.008c.282.023.566.038.855.038.286 0 .568-.015.848-.037.036-.004.071-.005.107-.008.28-.026.558-.063.832-.11l.07-.013a10.404 10.404 0 0 0 2.505-.785l.087-.04a10.594 10.594 0 0 0 1.463-.835c.07-.048.14-.099.21-.15.167-.12.331-.245.491-.375.036-.028.074-.053.109-.083l.35-.291-.011-.01A10.473 10.473 0 0 0 21 10.5zm-20.236 0C.764 5.131 5.13.764 10.5.764c5.369 0 9.736 4.367 9.736 9.736a9.712 9.712 0 0 1-3.28 7.279 2.852 2.852 0 0 0-.34-.205l-3.233-1.617a.846.846 0 0 1-.47-.76v-1.13c.075-.092.154-.197.235-.312a7.78 7.78 0 0 0 1-1.956c.483-.23.795-.711.795-1.255V9.19c0-.331-.121-.652-.338-.905V6.504c.02-.199.09-1.317-.72-2.24-.703-.803-1.842-1.21-3.385-1.21-1.543 0-2.682.407-3.386 1.21-.809.923-.738 2.041-.719 2.24v1.781a1.391 1.391 0 0 0-.338.905v1.353c0 .42.188.813.511 1.077a7.174 7.174 0 0 0 1.181 2.44v1.105c0 .311-.17.598-.443.747l-3.02 1.647a2.764 2.764 0 0 0-.286.182A9.713 9.713 0 0 1 .764 10.5zm15.448 7.878c-.134.097-.27.19-.408.28-.063.041-.126.083-.19.123-.18.111-.364.218-.551.317l-.125.064c-.43.22-.875.41-1.332.563l-.048.016c-.24.08-.482.15-.727.211h-.002a9.804 9.804 0 0 1-.75.154l-.02.004a9.8 9.8 0 0 1-.717.087l-.127.01c-.237.018-.476.03-.715.03-.242 0-.483-.012-.724-.03l-.124-.01a9.854 9.854 0 0 1-.754-.095 9.687 9.687 0 0 1-1.485-.37l-.045-.016a9.885 9.885 0 0 1-.711-.272l-.005-.002a9.98 9.98 0 0 1-.651-.312l-.084-.043a9.794 9.794 0 0 1-.74-.44 9.738 9.738 0 0 1-.51-.357l-.052-.04.037-.02 3.02-1.647c.518-.284.841-.827.841-1.418v-1.376l-.088-.106a6.374 6.374 0 0 1-1.146-2.373l-.035-.151-.13-.085a.633.633 0 0 1-.294-.531V9.189c0-.177.076-.343.213-.467l.126-.114V6.482l-.003-.05c-.001-.01-.114-.928.533-1.665.552-.63 1.498-.949 2.811-.949 1.308 0 2.251.317 2.805.942.646.73.54 1.665.54 1.672L13.84 8.61l.126.114c.137.124.213.29.213.467v1.354a.636.636 0 0 1-.451.6l-.19.06-.061.188a7.064 7.064 0 0 1-.953 1.922c-.1.14-.198.266-.281.362l-.095.108v1.412c0 .616.342 1.17.893 1.444l3.233 1.617.06.031c-.04.031-.082.06-.123.09z" fill="#E08524"/></svg>