<svg width="63" height="56" viewBox="0 0 63 56" fill="none" xmlns="http://www.w3.org/2000/svg">
<path d="M49.3997 10.8639H13.5442C13.0384 10.8639 12.645 11.1999 12.645 11.6479C12.645 12.0959 13.0384 12.4319 13.5442 12.4319H49.3997C49.9055 12.4319 50.2989 12.0959 50.2989 11.6479C50.2989 11.2559 49.9055 10.8639 49.3997 10.8639Z" fill="#E08629"/>
<path d="M49.3997 20.384H13.5442C13.0384 20.384 12.645 20.72 12.645 21.168C12.645 21.616 13.0384 21.952 13.5442 21.952H49.3997C49.9055 21.952 50.2989 21.616 50.2989 21.168C50.2989 20.72 49.9055 20.384 49.3997 20.384Z" fill="#E08629"/>
<path d="M37.654 25.816H25.2901C24.7843 25.816 24.3909 26.152 24.3909 26.6C24.3909 27.048 24.7843 27.384 25.2901 27.384H37.654C38.1598 27.384 38.5532 27.048 38.5532 26.6C38.5532 26.152 38.1598 25.816 37.654 25.816Z" fill="#E08629"/>
<path d="M49.3997 15.624H22.6486C22.1428 15.624 21.7494 15.96 21.7494 16.408C21.7494 16.856 22.1428 17.192 22.6486 17.192H49.3997C49.9055 17.192 50.2989 16.856 50.2989 16.408C50.2989 15.96 49.9055 15.624 49.3997 15.624Z" fill="#E08629"/>
<path d="M18.3774 15.624H13.5442C13.0384 15.624 12.645 15.96 12.645 16.408C12.645 16.856 13.0384 17.192 13.5442 17.192H18.3774C18.8832 17.192 19.2766 16.856 19.2766 16.408C19.2766 15.96 18.8832 15.624 18.3774 15.624Z" fill="#E08629"/>
<path d="M58.1668 9.35204C57.942 9.12804 57.661 9.01604 57.38 9.01604C55.5255 9.01604 53.9519 7.56004 53.8957 5.71204C53.8957 5.09604 53.3899 4.64804 52.7717 4.64804H9.9474C9.3292 4.64804 8.82341 5.09604 8.82341 5.71204C8.76721 7.50404 7.30601 8.96004 5.50762 9.01604C4.88942 9.01604 4.43982 9.52004 4.43982 10.136V33.936C4.43982 34.552 4.88942 35.056 5.50762 35.056C7.30601 35.112 8.76721 36.568 8.82341 38.36C8.82341 38.976 9.3292 39.424 9.9474 39.424H37.2043C37.7101 39.424 38.1597 39.368 38.1597 38.864C38.1597 38.36 37.7663 37.968 37.2605 37.968H10.6218C10.2284 35.728 8.14901 33.656 5.90101 33.32V10.752C8.14901 10.36 10.0598 8.28804 10.4532 6.10404H51.9849C52.3783 8.40004 54.7387 10.584 57.0429 10.864V26.488C57.0429 26.992 57.4362 27.384 57.942 27.384C58.4478 27.384 58.504 26.88 58.504 26.376V10.136C58.504 9.85604 58.3916 9.52004 58.1668 9.35204Z" fill="#E08629"/>
<path d="M60.3586 0H2.58519C1.124 0 0 1.12 0 2.576V41.552C0 42.952 1.124 44.128 2.58519 44.128H41.3069L39.9019 46.984C39.7333 47.376 39.7895 47.768 40.0143 48.104C40.2391 48.44 40.6887 48.608 41.0821 48.552L43.6111 48.16L45.0161 50.512C45.2409 50.848 45.5781 51.016 45.9715 51.016H46.0277C46.4211 51.016 46.8145 50.736 46.9831 50.4L49.4558 45.248L51.9286 50.4C52.0972 50.736 52.4344 51.016 52.884 51.016H52.9402C53.3336 51.016 53.6708 50.792 53.8956 50.512L55.3006 48.16L57.8296 48.552C58.223 48.608 58.6164 48.44 58.8974 48.104C59.1222 47.768 59.1784 47.32 59.0098 46.984L57.661 44.128H60.4148C61.8198 44.128 63 43.008 63 41.552V2.576C62.9438 1.12 61.8198 0 60.3586 0ZM45.9715 49.448L44.4541 46.984C44.3417 46.816 44.1169 46.704 43.8921 46.76L41.1945 47.208L43.7235 41.888L44.2855 42.448C44.8475 43.064 45.6905 43.344 46.4773 43.232C46.9269 43.176 47.4327 43.288 47.826 43.568C47.8823 43.624 47.9947 43.68 48.0508 43.736L48.5005 44.016L45.9715 49.448ZM49.6806 43.12C49.6244 43.12 49.512 43.12 49.4558 43.12C49.3996 43.12 49.2872 43.12 49.1748 43.12C48.8938 43.064 48.669 42.952 48.4442 42.84C47.8822 42.448 47.1517 42.224 46.4211 42.28C45.6905 42.336 45.0161 41.944 44.6789 41.272C44.5665 41.048 44.4541 40.824 44.2855 40.656L44.2293 40.544C43.9483 40.208 43.6111 39.984 43.2177 39.76C42.5433 39.48 42.1499 38.752 42.2061 38.024C42.2623 37.296 42.0937 36.568 41.6441 36.008C41.1945 35.392 41.1945 34.608 41.6441 33.992C42.0375 33.432 42.2623 32.704 42.2061 31.976C42.1499 31.248 42.5433 30.576 43.2177 30.24C43.8921 29.96 44.3979 29.4 44.6789 28.784C44.9599 28.112 45.6905 27.72 46.4211 27.776C47.1517 27.832 47.8822 27.664 48.4442 27.216C49.0624 26.768 49.8492 26.768 50.4674 27.216C51.0294 27.608 51.76 27.832 52.4906 27.776C53.2212 27.72 53.8956 28.112 54.2328 28.784C54.5138 29.456 55.0758 29.96 55.694 30.24C56.3684 30.52 56.7618 31.248 56.7056 31.976C56.6494 32.704 56.818 33.432 57.2676 33.992C57.7172 34.608 57.7172 35.392 57.2676 36.008C56.8742 36.568 56.6494 37.296 56.7056 38.024C56.7618 38.752 56.3684 39.424 55.694 39.76C55.3006 39.928 54.9634 40.208 54.6824 40.544L54.6262 40.6C54.4576 40.824 54.3452 41.048 54.2328 41.272C53.9518 41.944 53.2212 42.336 52.4906 42.28C51.76 42.224 51.0294 42.392 50.4674 42.84C50.2426 42.952 49.9616 43.064 49.6806 43.12ZM57.661 47.208L54.9634 46.76C54.7386 46.704 54.5138 46.816 54.4014 46.984L52.884 49.448L50.2988 44.016L50.7484 43.736C50.8046 43.68 50.917 43.624 50.9732 43.568C51.3666 43.288 51.8724 43.176 52.322 43.232C53.165 43.288 53.9518 43.008 54.5138 42.448L55.0758 41.888L57.661 47.208ZM61.5388 41.552C61.5388 42.168 61.033 42.672 60.4148 42.672H56.537L55.7502 41.048L56.0874 40.88C56.1436 40.88 56.1436 40.824 56.1998 40.824C57.3238 40.32 57.9982 39.144 57.8296 37.968C57.7734 37.52 57.8858 37.072 58.1668 36.736C58.8974 35.728 58.8974 34.384 58.1668 33.432C57.8858 33.096 57.7734 32.648 57.8296 32.2C57.942 30.968 57.2676 29.848 56.1436 29.344C55.7502 29.176 55.413 28.84 55.2444 28.448C54.7386 27.328 53.5584 26.656 52.3782 26.768C51.9286 26.824 51.479 26.712 51.1418 26.432C50.1302 25.704 48.8376 25.704 47.826 26.432C47.4327 26.712 47.0393 26.824 46.5897 26.768C45.4095 26.656 44.2293 27.328 43.7235 28.448C43.5549 28.84 43.2177 29.176 42.8243 29.344C41.7003 29.848 41.0259 31.024 41.1383 32.2C41.1945 32.648 41.0821 33.096 40.8011 33.432C40.0705 34.44 40.0705 35.784 40.8011 36.736C41.0821 37.128 41.1945 37.52 41.1383 37.968C41.0259 39.2 41.7003 40.32 42.8243 40.824C42.8243 40.824 42.8805 40.824 42.8805 40.88L43.2177 41.048L43.0491 41.44L42.4871 42.672H2.58519C1.96699 42.672 1.4612 42.168 1.4612 41.552V2.576C1.4612 1.96 1.96699 1.456 2.58519 1.456H60.4148C61.033 1.456 61.5388 1.96 61.5388 2.576V41.552Z" fill="#E08629"/>
<path d="M49.3996 29.3439C46.2524 29.3439 43.6672 31.9199 43.6672 35.0559C43.6672 38.1919 46.2524 40.7679 49.3996 40.7679C52.5468 40.7679 55.132 38.1919 55.132 35.0559C55.132 31.9199 52.5468 29.3439 49.3996 29.3439ZM49.3996 39.3119C47.0392 39.3119 45.1284 37.4079 45.1284 35.0559C45.1284 32.7039 47.0392 30.7999 49.3996 30.7999C51.76 30.7999 53.6708 32.7039 53.6708 35.0559C53.6708 37.4079 51.76 39.3119 49.3996 39.3119Z" fill="#E08629"/>
</svg>
