<svg viewBox="0 0 29 28" fill="none" xmlns="http://www.w3.org/2000/svg">
<path d="M29 14C29 6.26816 22.5079 0 14.5 0C6.49202 0 0 6.26816 0 14C0 21.7318 6.49202 28 14.5 28C22.5079 28 29 21.7318 29 14ZM1.31817 14C1.31817 6.97072 7.21967 1.27272 14.5 1.27272C21.7803 1.27272 27.6818 6.97072 27.6818 14C27.6818 21.0293 21.7803 26.7273 14.5 26.7273C7.21967 26.7273 1.31817 21.0293 1.31817 14Z" fill="#E08524"/>
<path d="M18.0053 5.92285H10.9945C8.31472 5.92285 6.13452 8.02787 6.13452 10.6153V17.3843C6.13452 19.9717 8.31472 22.0767 10.9945 22.0767H18.0053C20.6851 22.0767 22.8653 19.9717 22.8653 17.3843V10.6153C22.8653 8.02787 20.6851 5.92285 18.0053 5.92285ZM21.5582 17.3843C21.5582 19.2758 19.9644 20.8147 18.0053 20.8147H10.9945C9.03545 20.8147 7.44161 19.2758 7.44161 17.3843V10.6153C7.44161 8.72375 9.03545 7.18487 10.9945 7.18487H18.0053C19.9644 7.18487 21.5582 8.72375 21.5582 10.6153V17.3843Z" fill="white"/>
<path d="M14.4999 9.64575C12.0134 9.64575 9.99048 11.5989 9.99048 13.9997C9.99048 16.4005 12.0134 18.3537 14.4999 18.3537C16.9865 18.3537 19.0094 16.4005 19.0094 13.9997C19.0094 11.5989 16.9865 9.64575 14.4999 9.64575ZM14.4999 17.0917C12.7342 17.0917 11.2976 15.7046 11.2976 13.9997C11.2976 12.2948 12.7342 10.9078 14.4999 10.9078C16.2657 10.9078 17.7023 12.2948 17.7023 13.9997C17.7023 15.7046 16.2657 17.0917 14.4999 17.0917Z" fill="white"/>
<path d="M19.0749 10.2139C19.4359 10.2139 19.7285 9.93141 19.7285 9.58291C19.7285 9.23442 19.4359 8.9519 19.0749 8.9519C18.714 8.9519 18.4214 9.23442 18.4214 9.58291C18.4214 9.93141 18.714 10.2139 19.0749 10.2139Z" fill="white"/>
</svg>
