<svg viewBox="0 0 29 28" fill="none" xmlns="http://www.w3.org/2000/svg">
<path d="M28.4667 13.8773C28.4667 6.21322 22.2582 0 14.6001 0C6.94186 0 0.733398 6.21322 0.733398 13.8773C0.733398 21.5413 6.94186 27.7546 14.6001 27.7546C22.2582 27.7546 28.4667 21.5413 28.4667 13.8773ZM1.994 13.8773C1.994 6.90963 7.63773 1.26156 14.6001 1.26156C21.5624 1.26156 27.2061 6.90963 27.2061 13.8773C27.2061 20.845 21.5624 26.493 14.6001 26.493C7.63773 26.493 1.994 20.845 1.994 13.8773Z" fill="#E08524"/>
<path d="M15.132 21.8869V13.8772H17.773L18.1903 11.2228H15.132V9.89188C15.132 9.19929 15.3589 8.53821 16.3523 8.53821H18.3377V5.88892H15.519C13.1491 5.88892 12.5024 7.4507 12.5024 9.61561V11.2216H10.8762V13.8772H12.5024V21.8869H15.132Z" fill="white"/>
</svg>
