<svg width="23" height="23" viewBox="0 0 23 23" fill="none" xmlns="http://www.w3.org/2000/svg">
<path d="M18.3848 1.41422L1.41421 18.3848C0.633568 19.1654 0.633568 20.4326 1.41421 21.2132C2.19486 21.9939 3.46199 21.9939 4.24264 21.2132L21.2132 4.24265C21.9938 3.462 21.9938 2.19487 21.2132 1.41422C20.4326 0.633574 19.1654 0.633574 18.3848 1.41422Z" fill="white"/>
<path d="M4.24267 1.41422L21.2132 18.3848C21.9939 19.1654 21.9939 20.4326 21.2132 21.2132C20.4326 21.9939 19.1654 21.9939 18.3848 21.2132L1.41424 4.24265C0.633592 3.462 0.633592 2.19487 1.41424 1.41422C2.19488 0.633574 3.46202 0.633574 4.24267 1.41422Z" fill="white"/>
</svg>
