<svg width="61" height="56" viewBox="0 0 61 56" fill="none" xmlns="http://www.w3.org/2000/svg">
<path d="M60.126 45.8038L58.7032 45.9094C61.4961 43.1623 61.6015 38.6717 58.8613 35.8717C58.4397 35.4491 57.5439 34.7623 57.0169 34.4453C59.1775 33.1774 60.811 31.2755 60.811 28.7396C60.811 24.8302 57.6493 21.8717 53.6971 21.8717H44.8969V14.2642C44.8969 13.683 44.4226 13.2604 43.8957 13.2604C43.843 13.2604 43.7903 13.2604 43.7376 13.2604L31.6702 15.1094V14.1585C34.0415 13.683 35.7278 11.5698 35.7278 9.19245C35.7278 4.75472 31.5121 0.528302 31.354 0.316981C30.9325 -0.10566 30.3001 -0.10566 29.9313 0.316981C29.7732 0.475472 25.5575 4.75472 25.5575 9.19245C25.5575 11.6226 27.2438 13.683 29.6151 14.1585V15.4264L17.2315 17.3283C16.7573 17.3811 16.3884 17.8566 16.3884 18.3321V29.6906C15.6507 28.8981 14.8075 28.2113 13.859 27.6302C13.5428 27.4717 13.174 27.4717 12.8578 27.6302C9.85413 29.3736 7.79899 32.4377 7.37742 35.8717C6.69237 35.7132 5.95463 35.6604 5.21689 35.6604C4.74263 35.6604 4.32106 35.7132 3.8468 35.766C3.47793 35.8189 3.16175 36.0302 3.05636 36.4C1.00122 41.2604 2.95097 47.283 7.27203 50.3472L0 50.2415V51.5623H2.42401L4.16297 55.4189C4.32106 55.7887 4.68993 56 5.0588 56H43.7903C44.3699 56 44.7915 55.5245 44.7915 54.9962V51.9321H51.2731L53.012 55.4189C53.1701 55.7887 53.539 56 53.9079 56H57.9655C58.5451 56 58.9667 55.5245 58.9667 54.9962V51.9321H59.9679C60.5476 51.9321 60.9691 51.4566 60.9691 50.9283V46.8604C61.1272 46.2792 60.6529 45.8038 60.126 45.8038ZM59.4936 40.7321C59.4936 43.7434 57.0169 46.2264 54.0133 46.2264H35.6751C32.6714 46.2264 30.1947 43.7434 30.1947 40.7321C30.1947 37.7208 32.6714 35.2377 35.6751 35.2377H48.9018C50.7988 35.2377 52.327 36.7698 52.327 38.6717C52.327 40.5736 50.7988 42.1057 48.9018 42.1057H38.7315C37.941 42.1057 37.3087 41.4717 37.3087 40.6792C37.3087 39.8868 37.941 39.2528 38.7315 39.2528H45.4765V37.9849H38.7315C37.256 37.9849 36.0967 39.2 36.0967 40.6264C36.0967 42.0528 37.3087 43.2679 38.7315 43.2679H48.9018C51.4839 43.2679 53.5917 41.1547 53.5917 38.566C53.5917 37.5623 53.2228 36.5585 52.6432 35.766L52.1689 35.2377H54.0133C57.0169 35.2377 59.4936 37.7208 59.4936 40.7321ZM50.9569 23.034C52.854 23.034 54.3821 24.566 54.3821 26.4679C54.3821 28.3698 52.854 29.9019 50.9569 29.9019H40.7339C39.9435 29.9019 39.3111 29.2679 39.3111 28.4755C39.3111 27.683 39.9435 27.0491 40.7339 27.0491H47.479V25.7811H40.7339C39.2584 25.7811 38.0991 26.9962 38.0991 28.4226C38.0991 29.9019 39.3111 31.0642 40.7339 31.0642H50.9042C53.4863 31.0642 55.5941 28.9509 55.5941 26.3623C55.5941 25.4113 55.278 24.4604 54.751 23.6679L54.1187 22.8226L55.1199 23.034C56.5427 23.3509 57.7547 24.1962 58.5451 25.4642C59.3355 26.6792 59.599 28.1585 59.2302 29.5849C58.6505 32.0679 56.49 33.8642 53.9079 33.8642H48.7964H39.7327C36.729 33.9698 34.2523 31.5396 34.2523 28.5283C34.2523 25.517 36.729 23.034 39.7327 23.034H50.9569ZM29.4043 12.4151C28.0342 11.9396 27.0857 10.6189 27.0857 9.19245C27.0857 6.49811 29.0354 3.69811 30.2474 2.32453L30.5636 1.95472L30.8798 2.32453C32.0391 3.75094 34.0415 6.49811 34.0415 9.19245C34.0415 10.6717 33.093 11.9396 31.7229 12.4151L31.196 12.6264V10.566H29.9313V12.5736L29.4043 12.4151ZM8.32595 36.2415C8.43134 35.5547 8.58943 34.7094 8.9583 33.8113C10.0649 30.9585 12.2254 29.3736 13.2794 28.6868C14.0171 29.1623 15.3872 30.1132 16.4411 31.8566C17.5477 33.6528 17.8639 35.3434 17.9166 36.2415L17.9693 36.5585L17.7058 36.6642C16.9154 36.9811 16.1249 37.4038 15.4399 37.8792C14.8075 38.3019 14.1752 38.8302 13.6482 39.4113L13.3847 39.7283L13.1213 39.4113C12.5943 38.9358 12.0147 38.4075 11.3296 37.8792C10.1176 37.1396 9.16908 36.6113 8.32595 36.2415ZM18.2328 37.6151C19.8136 37.034 21.3418 37.0868 21.3945 37.0868C21.7107 37.0868 21.9215 37.1396 22.0796 37.1396L22.343 37.1925L22.4484 37.4566C23.0281 39.1472 23.1335 40.9434 22.7646 42.5811C21.9215 46.6491 18.6543 48.9208 16.8627 49.6604C15.1764 50.3472 13.4374 50.3472 13.2794 50.3472C13.0686 50.3472 12.8578 50.3472 12.7524 50.3472H12.4889L12.3835 50.083C11.8566 48.4981 11.6985 46.9132 11.962 45.3811C12.6997 40.6264 16.7573 38.1434 18.2328 37.6151ZM4.42645 45.434C2.95097 42.8453 3.21445 40.2566 3.26714 39.4641C3.42523 38.4075 3.68871 37.5094 3.89949 36.8755C4.68993 36.7698 5.95463 36.7698 7.37742 37.1396C8.48403 37.4566 9.22178 37.8792 9.74873 38.1434C10.5392 38.566 11.6458 39.3057 12.8051 40.5208C12.5943 40.8906 12.2781 41.366 11.962 41.9472C11.962 41.9472 11.5931 42.634 11.3823 43.2151C10.4865 45.6981 10.75 47.9698 11.0661 49.4491L11.2242 50.083L10.5919 49.9245C9.95952 49.8189 6.3762 48.9208 4.42645 45.434ZM21.2364 54.5208H5.1115L3.74141 51.5094H22.6065L21.2364 54.5208ZM30.9325 54.3623H22.3957L23.8185 51.5094H26.0845V50.2415H18.3909L19.4448 49.5019C23.6077 46.5962 25.1886 41.1019 23.1862 36.4528C23.0808 36.2415 22.9227 36.083 22.7119 36.083C21.6053 35.9245 20.446 35.9774 19.3394 36.1887L18.9178 36.2943L18.8651 35.9245C18.7597 35.3962 18.6543 34.8151 18.4962 34.234C18.3382 33.5472 18.1274 32.8604 17.9693 32.2264V18.8604L43.2106 15.0038V21.8189H39.7854C37.9937 21.8189 36.3074 22.5057 35.0428 23.7736C33.778 25.0415 33.093 26.7321 33.0403 28.5283C33.0403 30.3774 33.778 32.1208 35.1481 33.3887L35.7805 33.9698L34.9374 34.0755C33.1457 34.2868 31.5648 35.1849 30.4582 36.6113C29.3516 38.0377 28.8246 39.7811 29.0354 41.5774C29.1935 43.1094 29.9313 44.5359 31.0379 45.5925L31.7229 46.2792H29.6151C29.2462 46.2792 28.9827 46.5434 28.9827 46.9132V51.4038C28.9827 51.7208 29.2462 52.0377 29.6151 52.0377H31.0379V54.3623H30.9325ZM32.1972 54.3094V51.9321H37.6248L36.4655 54.3094H32.1972ZM43.6322 54.3094H37.4668L38.6261 51.9321H43.6322V54.3094ZM57.702 54.6792H54.4348L53.0647 51.9321H57.702V54.6792ZM59.7571 50.7698H30.142V47.6H59.7571V50.7698Z" fill="#E08629"/>
<path d="M21.7634 21.3963H20.3933V29.5322H21.7634V21.3963Z" fill="#E08629"/>
<path d="M21.7634 31.5396H20.3933V33.6H21.7634V31.5396Z" fill="#E08629"/>
</svg>
