<svg width="21" height="21" viewBox="0 0 21 21" fill="none" xmlns="http://www.w3.org/2000/svg">
<path d="M21 10.5C21 4.71049 16.2895 0 10.5 0C4.71049 0 0 4.71049 0 10.5C0 13.558 1.31498 16.3143 3.40811 18.2349L3.39818 18.2437L3.73876 18.5308C3.76091 18.5495 3.78496 18.5648 3.80711 18.5831C3.98809 18.7331 4.17556 18.8756 4.36647 19.0134C4.42833 19.0581 4.49018 19.1027 4.55318 19.1463C4.75707 19.2868 4.96631 19.42 5.18013 19.5464C5.22671 19.5739 5.27367 19.6006 5.32064 19.6274C5.55469 19.7606 5.79371 19.8862 6.03845 20.0015C6.0564 20.0099 6.07473 20.0176 6.09267 20.026C6.89029 20.3967 7.74175 20.669 8.63214 20.8297C8.65544 20.8339 8.67873 20.8381 8.7024 20.8423C8.97884 20.89 9.25833 20.9282 9.54125 20.9538C9.57562 20.9569 9.60998 20.9588 9.64473 20.9618C9.92651 20.9851 10.2113 21 10.5 21C10.786 21 11.0681 20.9851 11.3484 20.9626C11.3839 20.9595 11.4194 20.9576 11.4549 20.9546C11.7356 20.929 12.0128 20.8919 12.2865 20.845C12.3102 20.8408 12.3343 20.8366 12.3579 20.832C13.235 20.6747 14.0742 20.4086 14.8615 20.0474C14.8905 20.034 14.9199 20.0214 14.9489 20.0077C15.1845 19.8969 15.4148 19.7774 15.6404 19.6503C15.6965 19.6186 15.7523 19.5865 15.808 19.5537C16.0135 19.4326 16.2154 19.3063 16.4117 19.1719C16.4823 19.1237 16.5514 19.073 16.6213 19.0226C16.7889 18.9019 16.9535 18.7774 17.1135 18.6472C17.149 18.6186 17.1872 18.5938 17.2219 18.5644L17.5713 18.2727L17.561 18.2639C19.6724 16.3426 21 13.5736 21 10.5ZM0.763636 10.5C0.763636 5.13125 5.13125 0.763636 10.5 0.763636C15.8687 0.763636 20.2364 5.13125 20.2364 10.5C20.2364 13.393 18.9668 15.994 16.9569 17.7786C16.8447 17.7011 16.7317 17.6316 16.616 17.5736L13.3831 15.9573C13.0929 15.8122 12.9127 15.5205 12.9127 15.1964V14.0673C12.9875 13.9749 13.0666 13.8703 13.1483 13.7554C13.5668 13.1643 13.9024 12.5068 14.1471 11.7993C14.6309 11.5695 14.9432 11.0876 14.9432 10.5435V9.18998C14.9432 8.85895 14.8218 8.53784 14.6045 8.28545V6.50351C14.6244 6.30535 14.6947 5.187 13.8856 4.26453C13.1819 3.46118 12.0429 3.05455 10.5 3.05455C8.95707 3.05455 7.81811 3.46118 7.11442 4.26415C6.30535 5.18662 6.3756 6.30496 6.39545 6.50313V8.28507C6.17858 8.53745 6.05678 8.85856 6.05678 9.1896V10.5431C6.05678 10.9635 6.2454 11.3557 6.56842 11.6203C6.87769 12.8318 7.51418 13.7489 7.74938 14.0597V15.1647C7.74938 15.4762 7.57947 15.7626 7.30571 15.9123L4.28667 17.5591C4.19045 17.6114 4.095 17.6725 3.99955 17.7408C2.01447 15.9569 0.763636 13.372 0.763636 10.5ZM16.2116 18.3777C16.078 18.4747 15.9421 18.5686 15.8042 18.6583C15.7408 18.6995 15.6778 18.7408 15.6133 18.7809C15.4331 18.8924 15.2498 18.9985 15.0627 19.0978C15.0215 19.1195 14.9799 19.1402 14.9383 19.1615C14.5083 19.3819 14.0635 19.5712 13.6065 19.7251C13.5904 19.7305 13.5744 19.7362 13.558 19.7415C13.3186 19.8209 13.0761 19.8916 12.831 19.9523C12.8302 19.9523 12.8295 19.9527 12.8287 19.9527C12.5813 20.0138 12.3308 20.0645 12.0788 20.1062C12.0719 20.1073 12.0651 20.1088 12.0582 20.11C11.8211 20.1485 11.5821 20.1764 11.3423 20.1974C11.2999 20.2012 11.2575 20.2039 11.2148 20.207C10.9777 20.2249 10.7394 20.2364 10.5 20.2364C10.2579 20.2364 10.0166 20.2245 9.77645 20.2066C9.73484 20.2035 9.69322 20.2009 9.65198 20.197C9.40991 20.1757 9.16898 20.147 8.93035 20.1081C8.91965 20.1062 8.90896 20.1043 8.89827 20.1023C8.39351 20.018 7.89676 19.8939 7.413 19.7316C7.39811 19.7266 7.38284 19.7213 7.36795 19.7163C7.12778 19.6346 6.89029 19.5441 6.657 19.4441C6.65547 19.4433 6.65356 19.4426 6.65204 19.4418C6.43135 19.3467 6.21485 19.2413 6.00104 19.1302C5.97316 19.1157 5.94491 19.102 5.91742 19.0871C5.72231 18.9829 5.5314 18.8702 5.34316 18.7526C5.28742 18.7175 5.23205 18.682 5.17707 18.6461C5.00373 18.5327 4.83267 18.4147 4.6662 18.2899C4.64902 18.2769 4.6326 18.2631 4.61542 18.2501C4.62764 18.2433 4.63985 18.2364 4.65207 18.2295L7.67111 16.5827C8.19038 16.2994 8.51302 15.7561 8.51302 15.1647L8.51264 13.7894L8.42482 13.6832C8.41642 13.6737 7.59093 12.6695 7.27898 11.3098L7.24424 11.1586L7.11404 11.0743C6.93038 10.9555 6.82042 10.757 6.82042 10.5428V9.18922C6.82042 9.01167 6.89564 8.84634 7.03309 8.72225L7.15909 8.60847V6.48175L7.15565 6.43173C7.15451 6.42256 7.04187 5.50429 7.68867 4.767C8.24078 4.13776 9.18693 3.81818 10.5 3.81818C11.8081 3.81818 12.7512 4.13509 13.3048 4.75975C13.9509 5.4894 13.8451 6.42485 13.8443 6.43249L13.8409 8.60924L13.9669 8.72302C14.104 8.84673 14.1796 9.01244 14.1796 9.18998V10.5435C14.1796 10.8158 13.9944 11.0628 13.7287 11.1449L13.5389 11.2033L13.4778 11.3923C13.2525 12.0922 12.9318 12.7386 12.5248 13.3136C12.4247 13.4549 12.3274 13.5801 12.2438 13.676L12.1491 13.784V15.1964C12.1491 15.8119 12.4912 16.3655 13.0418 16.6404L16.2746 18.2566C16.2952 18.2669 16.3155 18.2776 16.3357 18.2883C16.2949 18.3193 16.2529 18.3479 16.2116 18.3777Z" fill="#E08524"/>
</svg>
